<svg width="577" height="48" viewBox="0 0 577 48" fill="none" xmlns="http://www.w3.org/2000/svg">
<path d="M5.63636 12.7273V36H2.81818V12.7273H5.63636ZM13.6051 25.5V36H10.9233V18.5455H13.5142V21.2727H13.7415C14.1506 20.3864 14.7718 19.6742 15.6051 19.1364C16.4384 18.5909 17.5142 18.3182 18.8324 18.3182C20.0142 18.3182 21.0483 18.5606 21.9347 19.0455C22.821 19.5227 23.5104 20.25 24.0028 21.2273C24.4953 22.197 24.7415 23.4242 24.7415 24.9091V36H22.0597V25.0909C22.0597 23.7197 21.7036 22.6515 20.9915 21.8864C20.2794 21.1136 19.3021 20.7273 18.0597 20.7273C17.2036 20.7273 16.4384 20.9129 15.7642 21.2841C15.0975 21.6553 14.571 22.197 14.1847 22.9091C13.7983 23.6212 13.6051 24.4848 13.6051 25.5ZM36.6875 42.9091C35.392 42.9091 34.2784 42.7424 33.3466 42.4091C32.4148 42.0833 31.6383 41.6515 31.017 41.1136C30.4034 40.5833 29.9148 40.0152 29.5511 39.4091L31.6875 37.9091C31.9299 38.2273 32.2367 38.5909 32.608 39C32.9792 39.4167 33.4867 39.7765 34.1307 40.0795C34.7822 40.3902 35.6345 40.5455 36.6875 40.5455C38.0966 40.5455 39.2595 40.2045 40.1761 39.5227C41.0928 38.8409 41.5511 37.7727 41.5511 36.3182V32.7727H41.3239C41.1269 33.0909 40.8466 33.4848 40.483 33.9545C40.1269 34.4167 39.6117 34.8295 38.9375 35.1932C38.2708 35.5492 37.3693 35.7273 36.233 35.7273C34.8239 35.7273 33.5587 35.3939 32.4375 34.7273C31.3239 34.0606 30.4413 33.0909 29.7898 31.8182C29.1458 30.5455 28.8239 29 28.8239 27.1818C28.8239 25.3939 29.1383 23.8371 29.767 22.5114C30.3958 21.178 31.2708 20.1477 32.392 19.4205C33.5133 18.6856 34.8087 18.3182 36.2784 18.3182C37.4148 18.3182 38.3163 18.5076 38.983 18.8864C39.6572 19.2576 40.1723 19.6818 40.5284 20.1591C40.892 20.6288 41.1723 21.0152 41.3693 21.3182H41.642V18.5455H44.233V36.5C44.233 38 43.892 39.2197 43.2102 40.1591C42.536 41.1061 41.6269 41.7992 40.483 42.2386C39.3466 42.6856 38.0814 42.9091 36.6875 42.9091ZM36.5966 33.3182C37.6723 33.3182 38.5814 33.072 39.3239 32.5795C40.0663 32.0871 40.6307 31.3788 41.017 30.4545C41.4034 29.5303 41.5966 28.4242 41.5966 27.1364C41.5966 25.8788 41.4072 24.7689 41.0284 23.8068C40.6496 22.8447 40.089 22.0909 39.3466 21.5455C38.6042 21 37.6875 20.7273 36.5966 20.7273C35.4602 20.7273 34.5133 21.0152 33.7557 21.5909C33.0057 22.1667 32.4413 22.9394 32.0625 23.9091C31.6913 24.8788 31.5057 25.9545 31.5057 27.1364C31.5057 28.3485 31.6951 29.4205 32.0739 30.3523C32.4602 31.2765 33.0284 32.0038 33.7784 32.5341C34.536 33.0568 35.4754 33.3182 36.5966 33.3182ZM49.142 36V18.5455H51.733V21.1818H51.9148C52.233 20.3182 52.8087 19.6174 53.642 19.0795C54.4754 18.5417 55.4148 18.2727 56.4602 18.2727C56.6572 18.2727 56.9034 18.2765 57.1989 18.2841C57.4943 18.2917 57.7178 18.303 57.8693 18.3182V21.0455C57.7784 21.0227 57.5701 20.9886 57.2443 20.9432C56.9261 20.8902 56.589 20.8636 56.233 20.8636C55.3845 20.8636 54.6269 21.0417 53.9602 21.3977C53.3011 21.7462 52.7784 22.2311 52.392 22.8523C52.0133 23.4659 51.8239 24.1667 51.8239 24.9545V36H49.142ZM67.8352 36.3636C66.1534 36.3636 64.7027 35.9924 63.483 35.25C62.2708 34.5 61.3352 33.4545 60.6761 32.1136C60.0246 30.7652 59.6989 29.197 59.6989 27.4091C59.6989 25.6212 60.0246 24.0455 60.6761 22.6818C61.3352 21.3106 62.2519 20.2424 63.4261 19.4773C64.608 18.7045 65.9867 18.3182 67.5625 18.3182C68.4716 18.3182 69.3693 18.4697 70.2557 18.7727C71.142 19.0758 71.9489 19.5682 72.6761 20.25C73.4034 20.9242 73.983 21.8182 74.4148 22.9318C74.8466 24.0455 75.0625 25.4167 75.0625 27.0455V28.1818H61.608V25.8636H72.3352C72.3352 24.8788 72.1383 24 71.7443 23.2273C71.358 22.4545 70.8049 21.8447 70.0852 21.3977C69.3731 20.9508 68.5322 20.7273 67.5625 20.7273C66.4943 20.7273 65.5701 20.9924 64.7898 21.5227C64.017 22.0455 63.4223 22.7273 63.0057 23.5682C62.589 24.4091 62.3807 25.3106 62.3807 26.2727V27.8182C62.3807 29.1364 62.608 30.2538 63.0625 31.1705C63.5246 32.0795 64.1648 32.7727 64.983 33.25C65.8011 33.7197 66.7519 33.9545 67.8352 33.9545C68.5398 33.9545 69.1761 33.8561 69.7443 33.6591C70.3201 33.4545 70.8163 33.1515 71.233 32.75C71.6496 32.3409 71.9716 31.8333 72.1989 31.2273L74.7898 31.9545C74.517 32.8333 74.0587 33.6061 73.4148 34.2727C72.7708 34.9318 71.9754 35.447 71.0284 35.8182C70.0814 36.1818 69.017 36.3636 67.8352 36.3636ZM91.5057 22.4545L89.0966 23.1364C88.9451 22.7348 88.7216 22.3447 88.4261 21.9659C88.1383 21.5795 87.7443 21.2614 87.2443 21.0114C86.7443 20.7614 86.1042 20.6364 85.3239 20.6364C84.2557 20.6364 83.3655 20.8826 82.6534 21.375C81.9489 21.8598 81.5966 22.4773 81.5966 23.2273C81.5966 23.8939 81.839 24.4205 82.3239 24.8068C82.8087 25.1932 83.5663 25.5152 84.5966 25.7727L87.1875 26.4091C88.7481 26.7879 89.911 27.3674 90.6761 28.1477C91.4413 28.9205 91.8239 29.9167 91.8239 31.1364C91.8239 32.1364 91.536 33.0303 90.9602 33.8182C90.392 34.6061 89.5966 35.2273 88.5739 35.6818C87.5511 36.1364 86.3617 36.3636 85.0057 36.3636C83.2254 36.3636 81.7519 35.9773 80.5852 35.2045C79.4186 34.4318 78.6799 33.303 78.3693 31.8182L80.9148 31.1818C81.1572 32.1212 81.6155 32.8258 82.2898 33.2955C82.9716 33.7652 83.8617 34 84.9602 34C86.2102 34 87.2027 33.7348 87.9375 33.2045C88.6799 32.6667 89.0511 32.0227 89.0511 31.2727C89.0511 30.6667 88.839 30.1591 88.4148 29.75C87.9905 29.3333 87.339 29.0227 86.4602 28.8182L83.5511 28.1364C81.9527 27.7576 80.7784 27.1705 80.0284 26.375C79.286 25.572 78.9148 24.5682 78.9148 23.3636C78.9148 22.3788 79.1913 21.5076 79.7443 20.75C80.3049 19.9924 81.0663 19.3977 82.0284 18.9659C82.9981 18.5341 84.0966 18.3182 85.3239 18.3182C87.0511 18.3182 88.4072 18.697 89.392 19.4545C90.3845 20.2121 91.089 21.2121 91.5057 22.4545ZM103.179 36.3636C101.497 36.3636 100.046 35.9924 98.8267 35.25C97.6146 34.5 96.679 33.4545 96.0199 32.1136C95.3684 30.7652 95.0426 29.197 95.0426 27.4091C95.0426 25.6212 95.3684 24.0455 96.0199 22.6818C96.679 21.3106 97.5956 20.2424 98.7699 19.4773C99.9517 18.7045 101.33 18.3182 102.906 18.3182C103.815 18.3182 104.713 18.4697 105.599 18.7727C106.486 19.0758 107.293 19.5682 108.02 20.25C108.747 20.9242 109.327 21.8182 109.759 22.9318C110.19 24.0455 110.406 25.4167 110.406 27.0455V28.1818H96.9517V25.8636H107.679C107.679 24.8788 107.482 24 107.088 23.2273C106.702 22.4545 106.149 21.8447 105.429 21.3977C104.717 20.9508 103.876 20.7273 102.906 20.7273C101.838 20.7273 100.914 20.9924 100.134 21.5227C99.3608 22.0455 98.7661 22.7273 98.3494 23.5682C97.9328 24.4091 97.7244 25.3106 97.7244 26.2727V27.8182C97.7244 29.1364 97.9517 30.2538 98.4062 31.1705C98.8684 32.0795 99.5085 32.7727 100.327 33.25C101.145 33.7197 102.096 33.9545 103.179 33.9545C103.884 33.9545 104.52 33.8561 105.088 33.6591C105.664 33.4545 106.16 33.1515 106.577 32.75C106.993 32.3409 107.315 31.8333 107.543 31.2273L110.134 31.9545C109.861 32.8333 109.402 33.6061 108.759 34.2727C108.115 34.9318 107.319 35.447 106.372 35.8182C105.425 36.1818 104.361 36.3636 103.179 36.3636ZM130.804 36.3636C129.122 36.3636 127.671 35.9924 126.452 35.25C125.24 34.5 124.304 33.4545 123.645 32.1136C122.993 30.7652 122.668 29.197 122.668 27.4091C122.668 25.6212 122.993 24.0455 123.645 22.6818C124.304 21.3106 125.221 20.2424 126.395 19.4773C127.577 18.7045 128.955 18.3182 130.531 18.3182C131.44 18.3182 132.338 18.4697 133.224 18.7727C134.111 19.0758 134.918 19.5682 135.645 20.25C136.372 20.9242 136.952 21.8182 137.384 22.9318C137.815 24.0455 138.031 25.4167 138.031 27.0455V28.1818H124.577V25.8636H135.304C135.304 24.8788 135.107 24 134.713 23.2273C134.327 22.4545 133.774 21.8447 133.054 21.3977C132.342 20.9508 131.501 20.7273 130.531 20.7273C129.463 20.7273 128.539 20.9924 127.759 21.5227C126.986 22.0455 126.391 22.7273 125.974 23.5682C125.558 24.4091 125.349 25.3106 125.349 26.2727V27.8182C125.349 29.1364 125.577 30.2538 126.031 31.1705C126.493 32.0795 127.134 32.7727 127.952 33.25C128.77 33.7197 129.721 33.9545 130.804 33.9545C131.509 33.9545 132.145 33.8561 132.713 33.6591C133.289 33.4545 133.785 33.1515 134.202 32.75C134.618 32.3409 134.94 31.8333 135.168 31.2273L137.759 31.9545C137.486 32.8333 137.027 33.6061 136.384 34.2727C135.74 34.9318 134.944 35.447 133.997 35.8182C133.05 36.1818 131.986 36.3636 130.804 36.3636ZM144.793 12.7273V36H142.111V12.7273H144.793ZM166.295 18.5455V20.8182H157.25V18.5455H166.295ZM159.886 14.3636H162.568V31C162.568 31.7576 162.678 32.3258 162.898 32.7045C163.125 33.0758 163.413 33.3258 163.761 33.4545C164.117 33.5758 164.492 33.6364 164.886 33.6364C165.182 33.6364 165.424 33.6212 165.614 33.5909C165.803 33.553 165.955 33.5227 166.068 33.5L166.614 35.9091C166.432 35.9773 166.178 36.0455 165.852 36.1136C165.527 36.1894 165.114 36.2273 164.614 36.2273C163.856 36.2273 163.114 36.0644 162.386 35.7386C161.667 35.4129 161.068 34.9167 160.591 34.25C160.121 33.5833 159.886 32.7424 159.886 31.7273V14.3636ZM177.46 36.3636C175.778 36.3636 174.328 35.9924 173.108 35.25C171.896 34.5 170.96 33.4545 170.301 32.1136C169.65 30.7652 169.324 29.197 169.324 27.4091C169.324 25.6212 169.65 24.0455 170.301 22.6818C170.96 21.3106 171.877 20.2424 173.051 19.4773C174.233 18.7045 175.612 18.3182 177.188 18.3182C178.097 18.3182 178.994 18.4697 179.881 18.7727C180.767 19.0758 181.574 19.5682 182.301 20.25C183.028 20.9242 183.608 21.8182 184.04 22.9318C184.472 24.0455 184.688 25.4167 184.688 27.0455V28.1818H171.233V25.8636H181.96C181.96 24.8788 181.763 24 181.369 23.2273C180.983 22.4545 180.43 21.8447 179.71 21.3977C178.998 20.9508 178.157 20.7273 177.188 20.7273C176.119 20.7273 175.195 20.9924 174.415 21.5227C173.642 22.0455 173.047 22.7273 172.631 23.5682C172.214 24.4091 172.006 25.3106 172.006 26.2727V27.8182C172.006 29.1364 172.233 30.2538 172.688 31.1705C173.15 32.0795 173.79 32.7727 174.608 33.25C175.426 33.7197 176.377 33.9545 177.46 33.9545C178.165 33.9545 178.801 33.8561 179.369 33.6591C179.945 33.4545 180.441 33.1515 180.858 32.75C181.275 32.3409 181.597 31.8333 181.824 31.2273L184.415 31.9545C184.142 32.8333 183.684 33.6061 183.04 34.2727C182.396 34.9318 181.6 35.447 180.653 35.8182C179.706 36.1818 178.642 36.3636 177.46 36.3636ZM190.298 18.5455L194.48 25.6818L198.662 18.5455H201.753L196.116 27.2727L201.753 36H198.662L194.48 29.2273L190.298 36H187.207L192.753 27.2727L187.207 18.5455H190.298ZM213.17 18.5455V20.8182H204.125V18.5455H213.17ZM206.761 14.3636H209.443V31C209.443 31.7576 209.553 32.3258 209.773 32.7045C210 33.0758 210.288 33.3258 210.636 33.4545C210.992 33.5758 211.367 33.6364 211.761 33.6364C212.057 33.6364 212.299 33.6212 212.489 33.5909C212.678 33.553 212.83 33.5227 212.943 33.5L213.489 35.9091C213.307 35.9773 213.053 36.0455 212.727 36.1136C212.402 36.1894 211.989 36.2273 211.489 36.2273C210.731 36.2273 209.989 36.0644 209.261 35.7386C208.542 35.4129 207.943 34.9167 207.466 34.25C206.996 33.5833 206.761 32.7424 206.761 31.7273V14.3636ZM224.108 36.3636C222.532 36.3636 221.15 35.9886 219.96 35.2386C218.778 34.4886 217.854 33.4394 217.188 32.0909C216.528 30.7424 216.199 29.1667 216.199 27.3636C216.199 25.5455 216.528 23.9583 217.188 22.6023C217.854 21.2462 218.778 20.1932 219.96 19.4432C221.15 18.6932 222.532 18.3182 224.108 18.3182C225.684 18.3182 227.063 18.6932 228.244 19.4432C229.434 20.1932 230.358 21.2462 231.017 22.6023C231.684 23.9583 232.017 25.5455 232.017 27.3636C232.017 29.1667 231.684 30.7424 231.017 32.0909C230.358 33.4394 229.434 34.4886 228.244 35.2386C227.063 35.9886 225.684 36.3636 224.108 36.3636ZM224.108 33.9545C225.305 33.9545 226.29 33.6477 227.062 33.0341C227.835 32.4205 228.407 31.6136 228.778 30.6136C229.15 29.6136 229.335 28.5303 229.335 27.3636C229.335 26.197 229.15 25.1098 228.778 24.1023C228.407 23.0947 227.835 22.2803 227.062 21.6591C226.29 21.0379 225.305 20.7273 224.108 20.7273C222.911 20.7273 221.926 21.0379 221.153 21.6591C220.381 22.2803 219.809 23.0947 219.438 24.1023C219.066 25.1098 218.881 26.197 218.881 27.3636C218.881 28.5303 219.066 29.6136 219.438 30.6136C219.809 31.6136 220.381 32.4205 221.153 33.0341C221.926 33.6477 222.911 33.9545 224.108 33.9545ZM250.247 36.4091C249.141 36.4091 248.137 36.2008 247.236 35.7841C246.334 35.3598 245.618 34.75 245.088 33.9545C244.558 33.1515 244.293 32.1818 244.293 31.0455C244.293 30.0455 244.49 29.2348 244.884 28.6136C245.277 27.9848 245.804 27.4924 246.463 27.1364C247.122 26.7803 247.849 26.5152 248.645 26.3409C249.448 26.1591 250.255 26.0152 251.065 25.9091C252.126 25.7727 252.986 25.6705 253.645 25.6023C254.312 25.5265 254.796 25.4015 255.099 25.2273C255.41 25.053 255.565 24.75 255.565 24.3182V24.2273C255.565 23.1061 255.259 22.2348 254.645 21.6136C254.039 20.9924 253.118 20.6818 251.884 20.6818C250.603 20.6818 249.599 20.9621 248.872 21.5227C248.145 22.0833 247.634 22.6818 247.338 23.3182L244.793 22.4091C245.247 21.3485 245.853 20.5227 246.611 19.9318C247.376 19.3333 248.209 18.9167 249.111 18.6818C250.02 18.4394 250.914 18.3182 251.793 18.3182C252.353 18.3182 252.997 18.3864 253.724 18.5227C254.459 18.6515 255.168 18.9205 255.849 19.3295C256.539 19.7386 257.111 20.3561 257.565 21.1818C258.02 22.0076 258.247 23.1136 258.247 24.5V36H255.565V33.6364H255.429C255.247 34.0152 254.944 34.4205 254.52 34.8523C254.096 35.2841 253.531 35.6515 252.827 35.9545C252.122 36.2576 251.262 36.4091 250.247 36.4091ZM250.656 34C251.717 34 252.611 33.7917 253.338 33.375C254.073 32.9583 254.626 32.4205 254.997 31.7614C255.376 31.1023 255.565 30.4091 255.565 29.6818V27.2273C255.452 27.3636 255.202 27.4886 254.815 27.6023C254.437 27.7083 253.997 27.803 253.497 27.8864C253.005 27.9621 252.524 28.0303 252.054 28.0909C251.592 28.1439 251.217 28.1894 250.929 28.2273C250.232 28.3182 249.58 28.4659 248.974 28.6705C248.376 28.8674 247.891 29.1667 247.52 29.5682C247.156 29.9621 246.974 30.5 246.974 31.1818C246.974 32.1136 247.319 32.8182 248.009 33.2955C248.705 33.7652 249.588 34 250.656 34ZM275.051 42.5455V33.3182H274.824C274.627 33.6364 274.347 34.0379 273.983 34.5227C273.619 35 273.1 35.428 272.426 35.8068C271.752 36.178 270.854 36.3636 269.733 36.3636C268.278 36.3636 266.994 35.9962 265.881 35.2614C264.767 34.5189 263.896 33.4735 263.267 32.125C262.638 30.7689 262.324 29.1667 262.324 27.3182C262.324 25.4848 262.638 23.8939 263.267 22.5455C263.896 21.197 264.771 20.1553 265.892 19.4205C267.013 18.6856 268.309 18.3182 269.778 18.3182C270.915 18.3182 271.813 18.5076 272.472 18.8864C273.138 19.2576 273.646 19.6818 273.994 20.1591C274.35 20.6288 274.627 21.0152 274.824 21.3182H275.142V18.5455H277.733V42.5455H275.051ZM270.097 33.9545C271.172 33.9545 272.081 33.6742 272.824 33.1136C273.566 32.5455 274.131 31.7614 274.517 30.7614C274.903 29.7538 275.097 28.5909 275.097 27.2727C275.097 25.9697 274.907 24.8295 274.528 23.8523C274.15 22.8674 273.589 22.1023 272.847 21.5568C272.104 21.0038 271.188 20.7273 270.097 20.7273C268.96 20.7273 268.013 21.0189 267.256 21.6023C266.506 22.178 265.941 22.9621 265.562 23.9545C265.191 24.9394 265.006 26.0455 265.006 27.2727C265.006 28.5152 265.195 29.6439 265.574 30.6591C265.96 31.6667 266.528 32.4697 267.278 33.0682C268.036 33.6591 268.975 33.9545 270.097 33.9545ZM293.642 28.8636V18.5455H296.324V36H293.642V33.0455H293.46C293.051 33.9318 292.415 34.6856 291.551 35.3068C290.688 35.9205 289.597 36.2273 288.278 36.2273C287.188 36.2273 286.218 35.9886 285.369 35.5114C284.521 35.0265 283.854 34.2992 283.369 33.3295C282.884 32.3523 282.642 31.1212 282.642 29.6364V18.5455H285.324V29.4545C285.324 30.7273 285.68 31.7424 286.392 32.5C287.112 33.2576 288.028 33.6364 289.142 33.6364C289.809 33.6364 290.487 33.4659 291.176 33.125C291.873 32.7841 292.456 32.2614 292.926 31.5568C293.403 30.8523 293.642 29.9545 293.642 28.8636ZM301.236 36V18.5455H303.918V36H301.236ZM302.599 15.6364C302.077 15.6364 301.626 15.4583 301.247 15.1023C300.876 14.7462 300.69 14.3182 300.69 13.8182C300.69 13.3182 300.876 12.8902 301.247 12.5341C301.626 12.178 302.077 12 302.599 12C303.122 12 303.569 12.178 303.94 12.5341C304.319 12.8902 304.509 13.3182 304.509 13.8182C304.509 14.3182 304.319 14.7462 303.94 15.1023C303.569 15.4583 303.122 15.6364 302.599 15.6364Z" fill="#0A3871"/>
</svg>
