<svg width="294" height="40" viewBox="0 0 294 40" fill="none" xmlns="http://www.w3.org/2000/svg">
<path d="M2.35724 0.363636H0.948153V12H2.35724V0.363636ZM6.34162 6.75C6.34162 5.22727 7.2848 4.36364 8.56889 4.36364C9.81321 4.36364 10.5689 5.17614 10.5689 6.54545V12H11.9098V6.45455C11.9098 4.22727 10.7223 3.15909 8.95526 3.15909C7.63707 3.15909 6.81889 3.75 6.4098 4.63636H6.29616V3.27273H5.00071V12H6.34162V6.75ZM17.8828 15.4545C19.9737 15.4545 21.6555 14.5 21.6555 12.25V3.27273H20.3601V4.65909H20.2237C19.9283 4.20455 19.3828 3.15909 17.6783 3.15909C15.4737 3.15909 13.951 4.90909 13.951 7.59091C13.951 10.3182 15.5419 11.8636 17.6555 11.8636C19.3601 11.8636 19.9055 10.8636 20.201 10.3864H20.3146V12.1591C20.3146 13.6136 19.2919 14.2727 17.8828 14.2727C16.2976 14.2727 15.7408 13.4375 15.3828 12.9545L14.3146 13.7045C14.8601 14.6193 15.9339 15.4545 17.8828 15.4545ZM17.8374 10.6591C16.1555 10.6591 15.2919 9.38636 15.2919 7.56818C15.2919 5.79545 16.1328 4.36364 17.8374 4.36364C19.4737 4.36364 20.3374 5.68182 20.3374 7.56818C20.3374 9.5 19.451 10.6591 17.8374 10.6591ZM24.1101 12H25.451V6.47727C25.451 5.29545 26.3828 4.43182 27.6555 4.43182C28.0135 4.43182 28.3828 4.5 28.4737 4.52273V3.15909C28.3203 3.14773 27.968 3.13636 27.7692 3.13636C26.7237 3.13636 25.8146 3.72727 25.4964 4.59091H25.4055V3.27273H24.1101V12ZM33.4567 12.1818C35.2294 12.1818 36.5249 11.2955 36.9339 9.97727L35.6385 9.61364C35.2976 10.5227 34.5078 10.9773 33.4567 10.9773C31.8828 10.9773 30.7976 9.96023 30.7351 8.09091H37.0703V7.52273C37.0703 4.27273 35.1385 3.15909 33.3203 3.15909C30.9567 3.15909 29.3885 5.02273 29.3885 7.70455C29.3885 10.3864 30.9339 12.1818 33.4567 12.1818ZM30.7351 6.93182C30.826 5.57386 31.7862 4.36364 33.3203 4.36364C34.7749 4.36364 35.7067 5.45455 35.7067 6.93182H30.7351ZM45.2919 5.22727C44.8714 3.98864 43.9283 3.15909 42.201 3.15909C40.3601 3.15909 38.9964 4.20455 38.9964 5.68182C38.9964 6.88636 39.7124 7.69318 41.3146 8.06818L42.7692 8.40909C43.6499 8.61364 44.0646 9.03409 44.0646 9.63636C44.0646 10.3864 43.2692 11 42.0192 11C40.9226 11 40.2351 10.5284 39.9964 9.59091L38.7237 9.90909C39.0362 11.392 40.2578 12.1818 42.0419 12.1818C44.0703 12.1818 45.451 11.0739 45.451 9.56818C45.451 8.35227 44.6896 7.58523 43.1328 7.20455L41.8374 6.88636C40.8033 6.63068 40.3374 6.28409 40.3374 5.61364C40.3374 4.86364 41.1328 4.31818 42.201 4.31818C43.3714 4.31818 43.8544 4.96591 44.0874 5.56818L45.2919 5.22727ZM50.0376 12.2045C51.5604 12.2045 52.3558 11.3864 52.6286 10.8182H52.6967V12H54.0376V6.25C54.0376 3.47727 51.924 3.15909 50.8104 3.15909C49.4922 3.15909 47.9922 3.61364 47.3104 5.20455L48.5831 5.65909C48.8786 5.02273 49.5774 4.34091 50.8558 4.34091C52.0888 4.34091 52.6967 4.99432 52.6967 6.11364V6.15909C52.6967 6.80682 52.0376 6.75 50.4467 6.95455C48.8274 7.16477 47.0604 7.52273 47.0604 9.52273C47.0604 11.2273 48.3786 12.2045 50.0376 12.2045ZM50.2422 11C49.174 11 48.4013 10.5227 48.4013 9.59091C48.4013 8.56818 49.3331 8.25 50.3786 8.11364C50.9467 8.04545 52.4695 7.88636 52.6967 7.61364V8.84091C52.6967 9.93182 51.8331 11 50.2422 11ZM64.6442 12.1818C66.4169 12.1818 67.7124 11.2955 68.1214 9.97727L66.826 9.61364C66.4851 10.5227 65.6953 10.9773 64.6442 10.9773C63.0703 10.9773 61.9851 9.96023 61.9226 8.09091H68.2578V7.52273C68.2578 4.27273 66.326 3.15909 64.5078 3.15909C62.1442 3.15909 60.576 5.02273 60.576 7.70455C60.576 10.3864 62.1214 12.1818 64.6442 12.1818ZM61.9226 6.93182C62.0135 5.57386 62.9737 4.36364 64.5078 4.36364C65.9624 4.36364 66.8942 5.45455 66.8942 6.93182H61.9226ZM71.6385 0.363636H70.2976V12H71.6385V0.363636ZM82.3899 3.27273H80.5263V1.18182H79.1854V3.27273H77.8672V4.40909H79.1854V9.86364C79.1854 11.3864 80.4126 12.1136 81.549 12.1136C82.049 12.1136 82.3672 12.0227 82.549 11.9545L82.2763 10.75C82.1626 10.7727 81.9808 10.8182 81.6854 10.8182C81.0945 10.8182 80.5263 10.6364 80.5263 9.5V4.40909H82.3899V3.27273ZM87.9723 12.1818C89.745 12.1818 91.0405 11.2955 91.4496 9.97727L90.1541 9.61364C89.8132 10.5227 89.0234 10.9773 87.9723 10.9773C86.3984 10.9773 85.3132 9.96023 85.2507 8.09091H91.5859V7.52273C91.5859 4.27273 89.6541 3.15909 87.8359 3.15909C85.4723 3.15909 83.9041 5.02273 83.9041 7.70455C83.9041 10.3864 85.4496 12.1818 87.9723 12.1818ZM85.2507 6.93182C85.3416 5.57386 86.3018 4.36364 87.8359 4.36364C89.2905 4.36364 90.2223 5.45455 90.2223 6.93182H85.2507ZM94.3913 3.27273H92.8459L95.6186 7.63636L92.8459 12H94.3913L96.4822 8.61364L98.5732 12H100.119L97.3004 7.63636L100.119 3.27273H98.5732L96.4822 6.84091L94.3913 3.27273ZM105.827 3.27273H103.964V1.18182H102.623V3.27273H101.305V4.40909H102.623V9.86364C102.623 11.3864 103.85 12.1136 104.987 12.1136C105.487 12.1136 105.805 12.0227 105.987 11.9545L105.714 10.75C105.6 10.7727 105.418 10.8182 105.123 10.8182C104.532 10.8182 103.964 10.6364 103.964 9.5V4.40909H105.827V3.27273ZM111.296 12.1818C113.66 12.1818 115.251 10.3864 115.251 7.68182C115.251 4.95455 113.66 3.15909 111.296 3.15909C108.933 3.15909 107.342 4.95455 107.342 7.68182C107.342 10.3864 108.933 12.1818 111.296 12.1818ZM111.296 10.9773C109.501 10.9773 108.683 9.43182 108.683 7.68182C108.683 5.93182 109.501 4.36364 111.296 4.36364C113.092 4.36364 113.91 5.93182 113.91 7.68182C113.91 9.43182 113.092 10.9773 111.296 10.9773ZM129.093 15.2727V3.27273H127.798V4.65909H127.638C127.343 4.20455 126.82 3.15909 125.116 3.15909C122.911 3.15909 121.388 4.90909 121.388 7.65909C121.388 10.4318 122.911 12.1818 125.093 12.1818C126.775 12.1818 127.343 11.1364 127.638 10.6591H127.752V15.2727H129.093ZM127.775 7.63636C127.775 9.61364 126.888 10.9773 125.275 10.9773C123.593 10.9773 122.729 9.5 122.729 7.63636C122.729 5.79545 123.57 4.36364 125.275 4.36364C126.911 4.36364 127.775 5.68182 127.775 7.63636ZM137.048 8.43182C137.048 10.0682 135.798 10.8182 134.798 10.8182C133.684 10.8182 132.888 10 132.888 8.72727V3.27273H131.548V8.81818C131.548 11.0455 132.729 12.1136 134.366 12.1136C135.684 12.1136 136.548 11.4091 136.957 10.5227H137.048V12H138.388V3.27273H137.048V8.43182ZM144.504 12.1818C146.276 12.1818 147.572 11.2955 147.981 9.97727L146.685 9.61364C146.344 10.5227 145.555 10.9773 144.504 10.9773C142.93 10.9773 141.844 9.96023 141.782 8.09091H148.117V7.52273C148.117 4.27273 146.185 3.15909 144.367 3.15909C142.004 3.15909 140.435 5.02273 140.435 7.70455C140.435 10.3864 141.981 12.1818 144.504 12.1818ZM141.782 6.93182C141.873 5.57386 142.833 4.36364 144.367 4.36364C145.822 4.36364 146.754 5.45455 146.754 6.93182H141.782ZM157.952 12.1818C159.634 12.1818 160.202 11.1364 160.498 10.6591H160.657V12H161.952V0.363636H160.612V4.65909H160.498C160.202 4.20455 159.68 3.15909 157.975 3.15909C155.771 3.15909 154.248 4.90909 154.248 7.65909C154.248 10.4318 155.771 12.1818 157.952 12.1818ZM158.134 10.9773C156.452 10.9773 155.589 9.5 155.589 7.63636C155.589 5.79545 156.43 4.36364 158.134 4.36364C159.771 4.36364 160.634 5.68182 160.634 7.63636C160.634 9.61364 159.748 10.9773 158.134 10.9773ZM168.254 12.1818C170.026 12.1818 171.322 11.2955 171.731 9.97727L170.435 9.61364C170.094 10.5227 169.305 10.9773 168.254 10.9773C166.68 10.9773 165.594 9.96023 165.532 8.09091H171.867V7.52273C171.867 4.27273 169.935 3.15909 168.117 3.15909C165.754 3.15909 164.185 5.02273 164.185 7.70455C164.185 10.3864 165.731 12.1818 168.254 12.1818ZM165.532 6.93182C165.623 5.57386 166.583 4.36364 168.117 4.36364C169.572 4.36364 170.504 5.45455 170.504 6.93182H165.532ZM180.089 5.22727C179.668 3.98864 178.725 3.15909 176.998 3.15909C175.157 3.15909 173.793 4.20455 173.793 5.68182C173.793 6.88636 174.509 7.69318 176.112 8.06818L177.566 8.40909C178.447 8.61364 178.862 9.03409 178.862 9.63636C178.862 10.3864 178.066 11 176.816 11C175.719 11 175.032 10.5284 174.793 9.59091L173.521 9.90909C173.833 11.392 175.055 12.1818 176.839 12.1818C178.867 12.1818 180.248 11.0739 180.248 9.56818C180.248 8.35227 179.487 7.58523 177.93 7.20455L176.634 6.88636C175.6 6.63068 175.134 6.28409 175.134 5.61364C175.134 4.86364 175.93 4.31818 176.998 4.31818C178.168 4.31818 178.651 4.96591 178.884 5.56818L180.089 5.22727ZM185.925 12.1818C187.698 12.1818 188.994 11.2955 189.403 9.97727L188.107 9.61364C187.766 10.5227 186.977 10.9773 185.925 10.9773C184.352 10.9773 183.266 9.96023 183.204 8.09091H189.539V7.52273C189.539 4.27273 187.607 3.15909 185.789 3.15909C183.425 3.15909 181.857 5.02273 181.857 7.70455C181.857 10.3864 183.403 12.1818 185.925 12.1818ZM183.204 6.93182C183.295 5.57386 184.255 4.36364 185.789 4.36364C187.244 4.36364 188.175 5.45455 188.175 6.93182H183.204ZM195.238 12.1818C197.011 12.1818 198.306 11.2955 198.715 9.97727L197.42 9.61364C197.079 10.5227 196.289 10.9773 195.238 10.9773C193.664 10.9773 192.579 9.96023 192.516 8.09091H198.852V7.52273C198.852 4.27273 196.92 3.15909 195.102 3.15909C192.738 3.15909 191.17 5.02273 191.17 7.70455C191.17 10.3864 192.715 12.1818 195.238 12.1818ZM192.516 6.93182C192.607 5.57386 193.567 4.36364 195.102 4.36364C196.556 4.36364 197.488 5.45455 197.488 6.93182H192.516ZM207.073 5.22727C206.653 3.98864 205.71 3.15909 203.982 3.15909C202.141 3.15909 200.778 4.20455 200.778 5.68182C200.778 6.88636 201.494 7.69318 203.096 8.06818L204.55 8.40909C205.431 8.61364 205.846 9.03409 205.846 9.63636C205.846 10.3864 205.05 11 203.8 11C202.704 11 202.016 10.5284 201.778 9.59091L200.505 9.90909C200.817 11.392 202.039 12.1818 203.823 12.1818C205.852 12.1818 207.232 11.0739 207.232 9.56818C207.232 8.35227 206.471 7.58523 204.914 7.20455L203.619 6.88636C202.585 6.63068 202.119 6.28409 202.119 5.61364C202.119 4.86364 202.914 4.31818 203.982 4.31818C205.153 4.31818 205.636 4.96591 205.869 5.56818L207.073 5.22727ZM217.41 12.1818C219.183 12.1818 220.478 11.2955 220.887 9.97727L219.592 9.61364C219.251 10.5227 218.461 10.9773 217.41 10.9773C215.836 10.9773 214.751 9.96023 214.688 8.09091H221.023V7.52273C221.023 4.27273 219.092 3.15909 217.273 3.15909C214.91 3.15909 213.342 5.02273 213.342 7.70455C213.342 10.3864 214.887 12.1818 217.41 12.1818ZM214.688 6.93182C214.779 5.57386 215.739 4.36364 217.273 4.36364C218.728 4.36364 219.66 5.45455 219.66 6.93182H214.688ZM224.404 6.75C224.404 5.22727 225.347 4.36364 226.631 4.36364C227.876 4.36364 228.631 5.17614 228.631 6.54545V12H229.972V6.45455C229.972 4.22727 228.785 3.15909 227.018 3.15909C225.7 3.15909 224.881 3.75 224.472 4.63636H224.359V3.27273H223.063V12H224.404V6.75ZM235.968 12.1818C237.9 12.1818 239.173 11 239.4 9.45455H238.059C237.809 10.4091 237.013 10.9773 235.968 10.9773C234.377 10.9773 233.354 9.65909 233.354 7.63636C233.354 5.65909 234.4 4.36364 235.968 4.36364C237.15 4.36364 237.854 5.09091 238.059 5.88636H239.4C239.173 4.25 237.786 3.15909 235.945 3.15909C233.582 3.15909 232.013 5.02273 232.013 7.68182C232.013 10.2955 233.513 12.1818 235.968 12.1818ZM241.36 12H242.701V6.47727C242.701 5.29545 243.633 4.43182 244.906 4.43182C245.263 4.43182 245.633 4.5 245.724 4.52273V3.15909C245.57 3.14773 245.218 3.13636 245.019 3.13636C243.974 3.13636 243.065 3.72727 242.746 4.59091H242.656V3.27273H241.36V12ZM247.313 12H248.654V3.27273H247.313V12ZM247.995 1.81818C248.518 1.81818 248.95 1.40909 248.95 0.909091C248.95 0.409091 248.518 0 247.995 0C247.472 0 247.04 0.409091 247.04 0.909091C247.04 1.40909 247.472 1.81818 247.995 1.81818ZM251.11 15.2727H252.451V10.6591H252.565C252.86 11.1364 253.428 12.1818 255.11 12.1818C257.292 12.1818 258.815 10.4318 258.815 7.65909C258.815 4.90909 257.292 3.15909 255.087 3.15909C253.383 3.15909 252.86 4.20455 252.565 4.65909H252.406V3.27273H251.11V15.2727ZM252.428 7.63636C252.428 5.68182 253.292 4.36364 254.928 4.36364C256.633 4.36364 257.474 5.79545 257.474 7.63636C257.474 9.5 256.61 10.9773 254.928 10.9773C253.315 10.9773 252.428 9.61364 252.428 7.63636ZM264.656 3.27273H262.792V1.18182H261.451V3.27273H260.133V4.40909H261.451V9.86364C261.451 11.3864 262.678 12.1136 263.815 12.1136C264.315 12.1136 264.633 12.0227 264.815 11.9545L264.542 10.75C264.428 10.7727 264.246 10.8182 263.951 10.8182C263.36 10.8182 262.792 10.6364 262.792 9.5V4.40909H264.656V3.27273ZM269.241 12.2045C270.763 12.2045 271.559 11.3864 271.832 10.8182H271.9V12H273.241V6.25C273.241 3.47727 271.127 3.15909 270.013 3.15909C268.695 3.15909 267.195 3.61364 266.513 5.20455L267.786 5.65909C268.082 5.02273 268.781 4.34091 270.059 4.34091C271.292 4.34091 271.9 4.99432 271.9 6.11364V6.15909C271.9 6.80682 271.241 6.75 269.65 6.95455C268.031 7.16477 266.263 7.52273 266.263 9.52273C266.263 11.2273 267.582 12.2045 269.241 12.2045ZM269.445 11C268.377 11 267.604 10.5227 267.604 9.59091C267.604 8.56818 268.536 8.25 269.582 8.11364C270.15 8.04545 271.673 7.88636 271.9 7.61364V8.84091C271.9 9.93182 271.036 11 269.445 11ZM275.688 12H277.029V6.47727C277.029 5.29545 277.961 4.43182 279.234 4.43182C279.592 4.43182 279.961 4.5 280.052 4.52273V3.15909C279.898 3.14773 279.546 3.13636 279.347 3.13636C278.302 3.13636 277.393 3.72727 277.075 4.59091H276.984V3.27273H275.688V12ZM289.687 12.1818C292.05 12.1818 293.641 10.3864 293.641 7.68182C293.641 4.95455 292.05 3.15909 289.687 3.15909C287.323 3.15909 285.732 4.95455 285.732 7.68182C285.732 10.3864 287.323 12.1818 289.687 12.1818ZM289.687 10.9773C287.891 10.9773 287.073 9.43182 287.073 7.68182C287.073 5.93182 287.891 4.36364 289.687 4.36364C291.482 4.36364 292.3 5.93182 292.3 7.68182C292.3 9.43182 291.482 10.9773 289.687 10.9773ZM102.07 36.1818C103.751 36.1818 104.32 35.1364 104.615 34.6591H104.774V36H106.07V24.3636H104.729V28.6591H104.615C104.32 28.2045 103.797 27.1591 102.092 27.1591C99.8878 27.1591 98.3651 28.9091 98.3651 31.6591C98.3651 34.4318 99.8878 36.1818 102.07 36.1818ZM102.251 34.9773C100.57 34.9773 99.706 33.5 99.706 31.6364C99.706 29.7955 100.547 28.3636 102.251 28.3636C103.888 28.3636 104.751 29.6818 104.751 31.6364C104.751 33.6136 103.865 34.9773 102.251 34.9773ZM112.371 36.1818C114.143 36.1818 115.439 35.2955 115.848 33.9773L114.553 33.6136C114.212 34.5227 113.422 34.9773 112.371 34.9773C110.797 34.9773 109.712 33.9602 109.649 32.0909H115.984V31.5227C115.984 28.2727 114.053 27.1591 112.234 27.1591C109.871 27.1591 108.303 29.0227 108.303 31.7045C108.303 34.3864 109.848 36.1818 112.371 36.1818ZM109.649 30.9318C109.74 29.5739 110.7 28.3636 112.234 28.3636C113.689 28.3636 114.621 29.4545 114.621 30.9318H109.649ZM124.206 29.2273C123.786 27.9886 122.842 27.1591 121.115 27.1591C119.274 27.1591 117.911 28.2045 117.911 29.6818C117.911 30.8864 118.626 31.6932 120.229 32.0682L121.683 32.4091C122.564 32.6136 122.979 33.0341 122.979 33.6364C122.979 34.3864 122.183 35 120.933 35C119.837 35 119.149 34.5284 118.911 33.5909L117.638 33.9091C117.95 35.392 119.172 36.1818 120.956 36.1818C122.984 36.1818 124.365 35.0739 124.365 33.5682C124.365 32.3523 123.604 31.5852 122.047 31.2045L120.751 30.8864C119.717 30.6307 119.251 30.2841 119.251 29.6136C119.251 28.8636 120.047 28.3182 121.115 28.3182C122.286 28.3182 122.768 28.9659 123.001 29.5682L124.206 29.2273ZM130.043 36.1818C131.815 36.1818 133.111 35.2955 133.52 33.9773L132.224 33.6136C131.884 34.5227 131.094 34.9773 130.043 34.9773C128.469 34.9773 127.384 33.9602 127.321 32.0909H133.656V31.5227C133.656 28.2727 131.724 27.1591 129.906 27.1591C127.543 27.1591 125.974 29.0227 125.974 31.7045C125.974 34.3864 127.52 36.1818 130.043 36.1818ZM127.321 30.9318C127.412 29.5739 128.372 28.3636 129.906 28.3636C131.361 28.3636 132.293 29.4545 132.293 30.9318H127.321ZM137.037 30.75C137.037 29.2273 137.98 28.3636 139.264 28.3636C140.509 28.3636 141.264 29.1761 141.264 30.5455V36H142.605V30.4545C142.605 28.2273 141.418 27.1591 139.651 27.1591C138.332 27.1591 137.514 27.75 137.105 28.6364H136.991V27.2727H135.696V36H137.037V30.75ZM148.601 36.1818C150.533 36.1818 151.805 35 152.033 33.4545H150.692C150.442 34.4091 149.646 34.9773 148.601 34.9773C147.01 34.9773 145.987 33.6591 145.987 31.6364C145.987 29.6591 147.033 28.3636 148.601 28.3636C149.783 28.3636 150.487 29.0909 150.692 29.8864H152.033C151.805 28.25 150.419 27.1591 148.578 27.1591C146.214 27.1591 144.646 29.0227 144.646 31.6818C144.646 34.2955 146.146 36.1818 148.601 36.1818ZM153.993 36H155.334V30.4773C155.334 29.2955 156.266 28.4318 157.538 28.4318C157.896 28.4318 158.266 28.5 158.357 28.5227V27.1591C158.203 27.1477 157.851 27.1364 157.652 27.1364C156.607 27.1364 155.697 27.7273 155.379 28.5909H155.288V27.2727H153.993V36ZM159.946 36H161.287V27.2727H159.946V36ZM160.628 25.8182C161.151 25.8182 161.582 25.4091 161.582 24.9091C161.582 24.4091 161.151 24 160.628 24C160.105 24 159.673 24.4091 159.673 24.9091C159.673 25.4091 160.105 25.8182 160.628 25.8182ZM163.743 39.2727H165.084V34.6591H165.197C165.493 35.1364 166.061 36.1818 167.743 36.1818C169.925 36.1818 171.447 34.4318 171.447 31.6591C171.447 28.9091 169.925 27.1591 167.72 27.1591C166.016 27.1591 165.493 28.2045 165.197 28.6591H165.038V27.2727H163.743V39.2727ZM165.061 31.6364C165.061 29.6818 165.925 28.3636 167.561 28.3636C169.266 28.3636 170.107 29.7955 170.107 31.6364C170.107 33.5 169.243 34.9773 167.561 34.9773C165.947 34.9773 165.061 33.6136 165.061 31.6364ZM177.288 27.2727H175.425V25.1818H174.084V27.2727H172.766V28.4091H174.084V33.8636C174.084 35.3864 175.311 36.1136 176.447 36.1136C176.947 36.1136 177.266 36.0227 177.447 35.9545L177.175 34.75C177.061 34.7727 176.879 34.8182 176.584 34.8182C175.993 34.8182 175.425 34.6364 175.425 33.5V28.4091H177.288V27.2727ZM181.874 36.2045C183.396 36.2045 184.192 35.3864 184.464 34.8182H184.533V36H185.874V30.25C185.874 27.4773 183.76 27.1591 182.646 27.1591C181.328 27.1591 179.828 27.6136 179.146 29.2045L180.419 29.6591C180.714 29.0227 181.413 28.3409 182.692 28.3409C183.925 28.3409 184.533 28.9943 184.533 30.1136V30.1591C184.533 30.8068 183.874 30.75 182.283 30.9545C180.663 31.1648 178.896 31.5227 178.896 33.5227C178.896 35.2273 180.214 36.2045 181.874 36.2045ZM182.078 35C181.01 35 180.237 34.5227 180.237 33.5909C180.237 32.5682 181.169 32.25 182.214 32.1136C182.783 32.0455 184.305 31.8864 184.533 31.6136V32.8409C184.533 33.9318 183.669 35 182.078 35ZM188.321 36H189.662V30.4773C189.662 29.2955 190.594 28.4318 191.866 28.4318C192.224 28.4318 192.594 28.5 192.685 28.5227V27.1591C192.531 27.1477 192.179 27.1364 191.98 27.1364C190.935 27.1364 190.026 27.7273 189.707 28.5909H189.616V27.2727H188.321V36ZM194.251 36.0909C194.814 36.0909 195.274 35.6307 195.274 35.0682C195.274 34.5057 194.814 34.0455 194.251 34.0455C193.689 34.0455 193.229 34.5057 193.229 35.0682C193.229 35.6307 193.689 36.0909 194.251 36.0909Z" fill="#495057"/>
</svg>
