<svg width="232" height="49" viewBox="0 0 232 49" fill="none" xmlns="http://www.w3.org/2000/svg">
<path d="M15.4915 1.54545H11.8182V12.5227H11.6648L4.13068 1.54545H0.892045V19H4.58239V8.0142H4.71023L12.304 19H15.4915V1.54545ZM18.4723 19H22.103V5.90909H18.4723V19ZM20.2962 4.22159C21.3786 4.22159 22.2649 3.39489 22.2649 2.38068C22.2649 1.375 21.3786 0.548295 20.2962 0.548295C19.2223 0.548295 18.3359 1.375 18.3359 2.38068C18.3359 3.39489 19.2223 4.22159 20.2962 4.22159ZM28.642 11.4318C28.6506 9.74432 29.6562 8.75568 31.1222 8.75568C32.5795 8.75568 33.4574 9.71023 33.4489 11.3125V19H37.0795V10.6648C37.0795 7.61364 35.2898 5.73864 32.5625 5.73864C30.6193 5.73864 29.2131 6.69318 28.625 8.21875H28.4716V5.90909H25.0114V19H28.642V11.4318ZM45.8388 24.1818C49.5803 24.1818 52.2393 22.4773 52.2393 19.1278V5.90909H48.6342V8.10795H48.4979C48.0121 7.04261 46.9467 5.73864 44.7564 5.73864C41.8842 5.73864 39.4553 7.97159 39.4553 12.429C39.4553 16.7841 41.8161 18.8125 44.7649 18.8125C46.853 18.8125 48.0206 17.7642 48.4979 16.6818H48.6513V19.0767C48.6513 20.875 47.5007 21.5739 45.924 21.5739C44.3217 21.5739 43.5121 20.875 43.2138 20.0824L39.8558 20.5341C40.2905 22.5966 42.3104 24.1818 45.8388 24.1818ZM45.9155 16.0852C44.1342 16.0852 43.1626 14.6705 43.1626 12.4119C43.1626 10.1875 44.1172 8.62784 45.9155 8.62784C47.6797 8.62784 48.6683 10.1193 48.6683 12.4119C48.6683 14.7216 47.6626 16.0852 45.9155 16.0852ZM63.5234 13.4261C63.532 15.1818 62.3303 16.1023 61.0263 16.1023C59.6541 16.1023 58.7678 15.1392 58.7592 13.5966V5.90909H55.1286V14.2443C55.1371 17.304 56.9268 19.1705 59.5604 19.1705C61.5291 19.1705 62.9439 18.1562 63.532 16.6222H63.6683V19H67.1541V5.90909H63.5234V13.4261ZM59.8501 4.22159H62.4155L65.0149 0.34375H61.657L59.8501 4.22159ZM73.6889 11.4318C73.6974 9.74432 74.7031 8.75568 76.169 8.75568C77.6264 8.75568 78.5043 9.71023 78.4957 11.3125V19H82.1264V10.6648C82.1264 7.61364 80.3366 5.73864 77.6094 5.73864C75.6662 5.73864 74.2599 6.69318 73.6719 8.21875H73.5185V5.90909H70.0582V19H73.6889V11.4318ZM90.5426 19H94.1733V11.142C94.1733 9.69318 95.0938 8.73011 96.304 8.73011C97.4972 8.73011 98.2983 9.5483 98.2983 10.8352V19H101.818V11.0057C101.818 9.65057 102.594 8.73011 103.915 8.73011C105.074 8.73011 105.943 9.45455 105.943 10.9119V19H109.565V10.196C109.565 7.35795 107.878 5.73864 105.44 5.73864C103.523 5.73864 102.031 6.71875 101.494 8.21875H101.358C100.94 6.7017 99.6023 5.73864 97.804 5.73864C96.0398 5.73864 94.7017 6.67614 94.1562 8.21875H94.0028V5.90909H90.5426V19ZM118.399 19.2557C121.638 19.2557 123.82 17.679 124.331 15.25L120.973 15.0284C120.607 16.0256 119.669 16.5455 118.459 16.5455C116.643 16.5455 115.493 15.3438 115.493 13.392V13.3835H124.408V12.3864C124.408 7.9375 121.714 5.73864 118.254 5.73864C114.402 5.73864 111.905 8.47443 111.905 12.5142C111.905 16.6648 114.368 19.2557 118.399 19.2557ZM115.493 11.1335C115.57 9.64205 116.703 8.44886 118.314 8.44886C119.891 8.44886 120.982 9.57386 120.99 11.1335H115.493ZM130.408 11.4318C130.416 9.74432 131.422 8.75568 132.888 8.75568C134.345 8.75568 135.223 9.71023 135.214 11.3125V19H138.845V10.6648C138.845 7.61364 137.055 5.73864 134.328 5.73864C132.385 5.73864 130.979 6.69318 130.391 8.21875H130.237V5.90909H126.777V19H130.408V11.4318ZM152.599 9.64205C152.275 7.23011 150.332 5.73864 147.025 5.73864C143.675 5.73864 141.468 7.28977 141.477 9.8125C141.468 11.7727 142.704 13.0426 145.261 13.554L147.528 14.0057C148.67 14.2358 149.19 14.6534 149.207 15.3097C149.19 16.0852 148.346 16.6392 147.076 16.6392C145.781 16.6392 144.92 16.0852 144.698 15.0199L141.127 15.2074C141.468 17.7131 143.599 19.2557 147.067 19.2557C150.46 19.2557 152.888 17.5256 152.897 14.9432C152.888 13.0511 151.653 11.9176 149.113 11.3977L146.744 10.9205C145.525 10.6562 145.073 10.2386 145.082 9.60795C145.073 8.82386 145.96 8.3125 147.085 8.3125C148.346 8.3125 149.096 9.00284 149.275 9.84659L152.599 9.64205ZM158.916 19.2472C160.851 19.2472 162.104 18.4034 162.743 17.1847H162.845V19H166.288V10.1705C166.288 7.05114 163.646 5.73864 160.732 5.73864C157.595 5.73864 155.533 7.23864 155.03 9.625L158.388 9.89773C158.635 9.02841 159.411 8.3892 160.714 8.3892C161.95 8.3892 162.658 9.01136 162.658 10.0852V10.1364C162.658 10.9801 161.763 11.0909 159.487 11.3125C156.896 11.5511 154.57 12.4205 154.57 15.3438C154.57 17.9347 156.419 19.2472 158.916 19.2472ZM159.956 16.7415C158.839 16.7415 158.038 16.2216 158.038 15.2244C158.038 14.2017 158.882 13.6989 160.161 13.5199C160.953 13.4091 162.249 13.2216 162.683 12.9318V14.321C162.683 15.6932 161.55 16.7415 159.956 16.7415ZM169.105 5.90909V19.5881C169.105 20.5767 168.688 21.071 167.52 21.071C167.366 21.071 167.23 21.071 167.043 21.054V23.892C167.307 23.9006 167.52 23.9091 167.776 23.9091C170.861 23.9091 172.736 22.6818 172.736 19.6477V5.90909H169.105ZM170.912 4.22159C171.994 4.22159 172.881 3.39489 172.881 2.38068C172.881 1.375 171.994 0.548295 170.912 0.548295C169.838 0.548295 168.952 1.375 168.952 2.38068C168.952 3.39489 169.838 4.22159 170.912 4.22159ZM181.61 19.2557C184.849 19.2557 187.031 17.679 187.542 15.25L184.184 15.0284C183.817 16.0256 182.88 16.5455 181.67 16.5455C179.854 16.5455 178.704 15.3438 178.704 13.392V13.3835H187.619V12.3864C187.619 7.9375 184.925 5.73864 181.465 5.73864C177.613 5.73864 175.116 8.47443 175.116 12.5142C175.116 16.6648 177.579 19.2557 181.61 19.2557ZM178.704 11.1335C178.781 9.64205 179.914 8.44886 181.525 8.44886C183.102 8.44886 184.192 9.57386 184.201 11.1335H178.704ZM202.582 5.90909H199.983V5.03125C199.983 4.14489 200.341 3.625 201.406 3.625C201.841 3.625 202.284 3.71875 202.574 3.8125L203.213 1.08523C202.761 0.948864 201.764 0.727272 200.648 0.727272C198.185 0.727272 196.352 2.11648 196.352 4.96307V5.90909H194.503V8.63636H196.352V19H199.983V8.63636H202.582V5.90909ZM213.195 13.4261C213.204 15.1818 212.002 16.1023 210.698 16.1023C209.326 16.1023 208.44 15.1392 208.431 13.5966V5.90909H204.8V14.2443C204.809 17.304 206.599 19.1705 209.232 19.1705C211.201 19.1705 212.616 18.1562 213.204 16.6222H213.34V19H216.826V5.90909H213.195V13.4261ZM225.696 19.2557C228.935 19.2557 231.116 17.679 231.628 15.25L228.27 15.0284C227.903 16.0256 226.966 16.5455 225.756 16.5455C223.94 16.5455 222.79 15.3438 222.79 13.392V13.3835H231.705V12.3864C231.705 7.9375 229.011 5.73864 225.551 5.73864C221.699 5.73864 219.202 8.47443 219.202 12.5142C219.202 16.6648 221.665 19.2557 225.696 19.2557ZM222.79 11.1335C222.866 9.64205 224 8.44886 225.611 8.44886C227.188 8.44886 228.278 9.57386 228.287 11.1335H222.79ZM55.5749 48.2557C58.8136 48.2557 60.9954 46.679 61.5067 44.25L58.1488 44.0284C57.7823 45.0256 56.8448 45.5455 55.6346 45.5455C53.8192 45.5455 52.6687 44.3438 52.6687 42.392V42.3835H61.5835V41.3864C61.5835 36.9375 58.8903 34.7386 55.43 34.7386C51.5778 34.7386 49.0806 37.4744 49.0806 41.5142C49.0806 45.6648 51.5437 48.2557 55.5749 48.2557ZM52.6687 40.1335C52.7454 38.642 53.8789 37.4489 55.4897 37.4489C57.0664 37.4489 58.1573 38.5739 58.1658 40.1335H52.6687ZM67.5835 40.4318C67.592 38.7443 68.5977 37.7557 70.0636 37.7557C71.521 37.7557 72.3988 38.7102 72.3903 40.3125V48H76.021V39.6648C76.021 36.6136 74.2312 34.7386 71.5039 34.7386C69.5607 34.7386 68.1545 35.6932 67.5664 37.2188H67.413V34.9091H63.9528V48H67.5835V40.4318ZM84.7972 48.2557C88.283 48.2557 90.4734 46.2102 90.6438 43.2017H87.2177C87.0046 44.5994 86.0842 45.3835 84.8398 45.3835C83.1438 45.3835 82.0444 43.9602 82.0444 41.4545C82.0444 38.983 83.1523 37.5682 84.8398 37.5682C86.1694 37.5682 87.0217 38.446 87.2177 39.75H90.6438C90.4904 36.7244 88.1978 34.7386 84.7802 34.7386C80.8086 34.7386 78.354 37.4915 78.354 41.5057C78.354 45.4858 80.766 48.2557 84.7972 48.2557ZM98.8832 48.2557C102.855 48.2557 105.326 45.5369 105.326 41.5057C105.326 37.4489 102.855 34.7386 98.8832 34.7386C94.9116 34.7386 92.44 37.4489 92.44 41.5057C92.44 45.5369 94.9116 48.2557 98.8832 48.2557ZM98.9002 45.4432C97.0678 45.4432 96.1303 43.7642 96.1303 41.4801C96.1303 39.196 97.0678 37.5085 98.9002 37.5085C100.699 37.5085 101.636 39.196 101.636 41.4801C101.636 43.7642 100.699 45.4432 98.9002 45.4432ZM111.318 40.4318C111.326 38.7443 112.332 37.7557 113.798 37.7557C115.255 37.7557 116.133 38.7102 116.125 40.3125V48H119.755V39.6648C119.755 36.6136 117.966 34.7386 115.238 34.7386C113.295 34.7386 111.889 35.6932 111.301 37.2188H111.147V34.9091H107.687V48H111.318V40.4318ZM129.58 34.9091H127.117V31.7727H123.486V34.9091H121.696V37.6364H123.486V44.4545C123.469 47.0199 125.216 48.2898 127.85 48.179C128.787 48.1449 129.452 47.9574 129.819 47.8381L129.248 45.1364C129.069 45.1705 128.685 45.2557 128.344 45.2557C127.62 45.2557 127.117 44.983 127.117 43.9773V37.6364H129.58V34.9091ZM131.945 48H135.576V40.5938C135.576 38.983 136.752 37.875 138.354 37.875C138.857 37.875 139.547 37.9602 139.888 38.071V34.8494C139.564 34.7727 139.113 34.7216 138.746 34.7216C137.28 34.7216 136.078 35.5739 135.601 37.1932H135.465V34.9091H131.945V48ZM145.123 48.2472C147.058 48.2472 148.311 47.4034 148.95 46.1847H149.052V48H152.495V39.1705C152.495 36.0511 149.853 34.7386 146.939 34.7386C143.802 34.7386 141.74 36.2386 141.237 38.625L144.595 38.8977C144.842 38.0284 145.618 37.3892 146.922 37.3892C148.157 37.3892 148.865 38.0114 148.865 39.0852V39.1364C148.865 39.9801 147.97 40.0909 145.694 40.3125C143.103 40.5511 140.777 41.4205 140.777 44.3438C140.777 46.9347 142.626 48.2472 145.123 48.2472ZM146.163 45.7415C145.047 45.7415 144.245 45.2216 144.245 44.2244C144.245 43.2017 145.089 42.6989 146.368 42.5199C147.16 42.4091 148.456 42.2216 148.89 41.9318V43.321C148.89 44.6932 147.757 45.7415 146.163 45.7415ZM160.136 48.2131C162.25 48.2131 163.349 46.9943 163.852 45.9034H164.005V48H167.585V30.5455H163.963V37.108H163.852C163.366 36.0426 162.318 34.7386 160.127 34.7386C157.255 34.7386 154.826 36.9716 154.826 41.4716C154.826 45.8523 157.153 48.2131 160.136 48.2131ZM161.287 45.3239C159.505 45.3239 158.534 43.7386 158.534 41.4545C158.534 39.1875 159.488 37.6278 161.287 37.6278C163.051 37.6278 164.039 39.1193 164.039 41.4545C164.039 43.7898 163.034 45.3239 161.287 45.3239ZM176.485 48.2557C180.456 48.2557 182.928 45.5369 182.928 41.5057C182.928 37.4489 180.456 34.7386 176.485 34.7386C172.513 34.7386 170.042 37.4489 170.042 41.5057C170.042 45.5369 172.513 48.2557 176.485 48.2557ZM176.502 45.4432C174.669 45.4432 173.732 43.7642 173.732 41.4801C173.732 39.196 174.669 37.5085 176.502 37.5085C178.3 37.5085 179.238 39.196 179.238 41.4801C179.238 43.7642 178.3 45.4432 176.502 45.4432Z" fill="#343A40"/>
</svg>
