<svg width="204" height="13" viewBox="0 0 204 13" fill="none" xmlns="http://www.w3.org/2000/svg">
<path opacity="0.8" d="M5.82955 3.45455C5.77841 3.02273 5.57102 2.6875 5.20739 2.44886C4.84375 2.21023 4.39773 2.09091 3.86932 2.09091C3.48295 2.09091 3.14489 2.15341 2.85511 2.27841C2.56818 2.40341 2.34375 2.57528 2.18182 2.79403C2.02273 3.01278 1.94318 3.26136 1.94318 3.53977C1.94318 3.77273 1.99858 3.97301 2.10938 4.14062C2.22301 4.3054 2.3679 4.44318 2.54403 4.55398C2.72017 4.66193 2.90483 4.75142 3.09801 4.82244C3.29119 4.89062 3.46875 4.94602 3.63068 4.98864L4.51705 5.22727C4.74432 5.28693 4.99716 5.36932 5.27557 5.47443C5.55682 5.57955 5.82528 5.72301 6.08097 5.90483C6.33949 6.08381 6.55256 6.31392 6.72017 6.59517C6.88778 6.87642 6.97159 7.22159 6.97159 7.63068C6.97159 8.10227 6.84801 8.52841 6.60085 8.90909C6.35653 9.28977 5.99858 9.59233 5.52699 9.81676C5.05824 10.0412 4.48864 10.1534 3.81818 10.1534C3.19318 10.1534 2.65199 10.0526 2.1946 9.85085C1.74006 9.64915 1.3821 9.3679 1.12074 9.0071C0.862216 8.64631 0.715909 8.22727 0.681818 7.75H1.77273C1.80114 8.07955 1.91193 8.35227 2.10511 8.56818C2.30114 8.78125 2.5483 8.94034 2.84659 9.04545C3.14773 9.14773 3.47159 9.19886 3.81818 9.19886C4.22159 9.19886 4.58381 9.13352 4.90483 9.00284C5.22585 8.86932 5.48011 8.68466 5.66761 8.44886C5.85511 8.21023 5.94886 7.93182 5.94886 7.61364C5.94886 7.32386 5.8679 7.08807 5.70597 6.90625C5.54403 6.72443 5.33097 6.5767 5.06676 6.46307C4.80256 6.34943 4.51705 6.25 4.21023 6.16477L3.13636 5.85795C2.45455 5.66193 1.91477 5.3821 1.51705 5.01847C1.11932 4.65483 0.920455 4.17898 0.920455 3.59091C0.920455 3.10227 1.05256 2.67614 1.31676 2.3125C1.58381 1.94602 1.94176 1.66193 2.39062 1.46023C2.84233 1.25568 3.34659 1.15341 3.90341 1.15341C4.46591 1.15341 4.96591 1.25426 5.40341 1.45597C5.84091 1.65483 6.1875 1.92756 6.44318 2.27415C6.7017 2.62074 6.83807 3.0142 6.85227 3.45455H5.82955ZM11.2319 10.1364C10.641 10.1364 10.1225 9.99574 9.67649 9.71449C9.23331 9.43324 8.88672 9.03977 8.63672 8.53409C8.38956 8.02841 8.26598 7.4375 8.26598 6.76136C8.26598 6.07955 8.38956 5.48437 8.63672 4.97585C8.88672 4.46733 9.23331 4.07244 9.67649 3.79119C10.1225 3.50994 10.641 3.36932 11.2319 3.36932C11.8228 3.36932 12.3398 3.50994 12.783 3.79119C13.229 4.07244 13.5756 4.46733 13.8228 4.97585C14.0728 5.48437 14.1978 6.07955 14.1978 6.76136C14.1978 7.4375 14.0728 8.02841 13.8228 8.53409C13.5756 9.03977 13.229 9.43324 12.783 9.71449C12.3398 9.99574 11.8228 10.1364 11.2319 10.1364ZM11.2319 9.23295C11.6808 9.23295 12.0501 9.1179 12.3398 8.88778C12.6296 8.65767 12.8441 8.35511 12.9833 7.98011C13.1225 7.60511 13.1921 7.19886 13.1921 6.76136C13.1921 6.32386 13.1225 5.91619 12.9833 5.53835C12.8441 5.16051 12.6296 4.85511 12.3398 4.62216C12.0501 4.3892 11.6808 4.27273 11.2319 4.27273C10.783 4.27273 10.4137 4.3892 10.1239 4.62216C9.83416 4.85511 9.61967 5.16051 9.48047 5.53835C9.34126 5.91619 9.27166 6.32386 9.27166 6.76136C9.27166 7.19886 9.34126 7.60511 9.48047 7.98011C9.61967 8.35511 9.83416 8.65767 10.1239 8.88778C10.4137 9.1179 10.783 9.23295 11.2319 9.23295ZM16.7386 1.27273V10H15.733V1.27273H16.7386ZM21.2397 10.1364C20.6488 10.1364 20.1303 9.99574 19.6843 9.71449C19.2411 9.43324 18.8945 9.03977 18.6445 8.53409C18.3974 8.02841 18.2738 7.4375 18.2738 6.76136C18.2738 6.07955 18.3974 5.48437 18.6445 4.97585C18.8945 4.46733 19.2411 4.07244 19.6843 3.79119C20.1303 3.50994 20.6488 3.36932 21.2397 3.36932C21.8306 3.36932 22.3477 3.50994 22.7908 3.79119C23.2369 4.07244 23.5835 4.46733 23.8306 4.97585C24.0806 5.48437 24.2056 6.07955 24.2056 6.76136C24.2056 7.4375 24.0806 8.02841 23.8306 8.53409C23.5835 9.03977 23.2369 9.43324 22.7908 9.71449C22.3477 9.99574 21.8306 10.1364 21.2397 10.1364ZM21.2397 9.23295C21.6886 9.23295 22.0579 9.1179 22.3477 8.88778C22.6374 8.65767 22.8519 8.35511 22.9911 7.98011C23.1303 7.60511 23.1999 7.19886 23.1999 6.76136C23.1999 6.32386 23.1303 5.91619 22.9911 5.53835C22.8519 5.16051 22.6374 4.85511 22.3477 4.62216C22.0579 4.3892 21.6886 4.27273 21.2397 4.27273C20.7908 4.27273 20.4215 4.3892 20.1317 4.62216C19.842 4.85511 19.6275 5.16051 19.4883 5.53835C19.3491 5.91619 19.2795 6.32386 19.2795 6.76136C19.2795 7.19886 19.3491 7.60511 19.4883 7.98011C19.6275 8.35511 19.842 8.65767 20.1317 8.88778C20.4215 9.1179 20.7908 9.23295 21.2397 9.23295ZM30.1214 1.27273V10H29.1158V1.27273H30.1214ZM34.7077 10.1364C34.0771 10.1364 33.533 9.99716 33.0756 9.71875C32.6211 9.4375 32.2702 9.04545 32.0231 8.54261C31.7788 8.03693 31.6566 7.44886 31.6566 6.77841C31.6566 6.10795 31.7788 5.51705 32.0231 5.00568C32.2702 4.49148 32.614 4.09091 33.0543 3.80398C33.4975 3.5142 34.0146 3.36932 34.6055 3.36932C34.9464 3.36932 35.283 3.42614 35.6154 3.53977C35.9478 3.65341 36.2504 3.83807 36.5231 4.09375C36.7958 4.34659 37.0131 4.68182 37.1751 5.09943C37.337 5.51705 37.418 6.03125 37.418 6.64205V7.06818H32.3725V6.19886H36.3952C36.3952 5.82955 36.3214 5.5 36.1737 5.21023C36.0288 4.92045 35.8214 4.69176 35.5515 4.52415C35.2844 4.35653 34.9691 4.27273 34.6055 4.27273C34.2049 4.27273 33.8583 4.37216 33.5657 4.57102C33.2759 4.76705 33.0529 5.02273 32.8967 5.33807C32.7404 5.65341 32.6623 5.99148 32.6623 6.35227V6.93182C32.6623 7.42614 32.7475 7.84517 32.918 8.18892C33.0913 8.52983 33.3313 8.78977 33.6381 8.96875C33.945 9.14489 34.3015 9.23295 34.7077 9.23295C34.9719 9.23295 35.2106 9.19602 35.4237 9.12216C35.6396 9.04545 35.8256 8.93182 35.9819 8.78125C36.1381 8.62784 36.2589 8.4375 36.3441 8.21023L37.3157 8.48295C37.2134 8.8125 37.0415 9.10227 36.8001 9.35227C36.5586 9.59943 36.2603 9.79261 35.9052 9.93182C35.5501 10.0682 35.1509 10.1364 34.7077 10.1364ZM41.7944 3.45455V4.30682H38.4023V3.45455H41.7944ZM39.391 1.88636H40.3967V8.125C40.3967 8.40909 40.4379 8.62216 40.5202 8.7642C40.6055 8.90341 40.7134 8.99716 40.8441 9.04545C40.9776 9.09091 41.1183 9.11364 41.266 9.11364C41.3768 9.11364 41.4677 9.10795 41.5387 9.09659C41.6097 9.08239 41.6665 9.07102 41.7092 9.0625L41.9137 9.96591C41.8455 9.99148 41.7504 10.017 41.6282 10.0426C41.506 10.071 41.3512 10.0852 41.1637 10.0852C40.8796 10.0852 40.6012 10.0241 40.3285 9.90199C40.0586 9.77983 39.8342 9.59375 39.6552 9.34375C39.479 9.09375 39.391 8.77841 39.391 8.39773V1.88636ZM43.3072 10V3.45455H44.2788V4.44318H44.3469C44.4663 4.11932 44.6822 3.85653 44.9947 3.65483C45.3072 3.45312 45.6594 3.35227 46.0515 3.35227C46.1254 3.35227 46.2177 3.35369 46.3285 3.35653C46.4393 3.35937 46.5231 3.36364 46.5799 3.36932V4.39205C46.5458 4.38352 46.4677 4.37074 46.3455 4.35369C46.2262 4.33381 46.0998 4.32386 45.9663 4.32386C45.6481 4.32386 45.364 4.39062 45.114 4.52415C44.8668 4.65483 44.6708 4.83665 44.5259 5.0696C44.3839 5.29972 44.3129 5.5625 44.3129 5.85795V10H43.3072ZM49.6982 10.1534C49.2834 10.1534 48.907 10.0753 48.5689 9.91903C48.2308 9.75994 47.9624 9.53125 47.7635 9.23295C47.5646 8.93182 47.4652 8.56818 47.4652 8.14205C47.4652 7.76705 47.5391 7.46307 47.6868 7.23011C47.8345 6.99432 48.032 6.80966 48.2791 6.67614C48.5263 6.54261 48.799 6.44318 49.0973 6.37784C49.3984 6.30966 49.701 6.25568 50.005 6.21591C50.4027 6.16477 50.7251 6.12642 50.9723 6.10085C51.2223 6.07244 51.4041 6.02557 51.5178 5.96023C51.6342 5.89489 51.6925 5.78125 51.6925 5.61932V5.58523C51.6925 5.16477 51.5774 4.83807 51.3473 4.60511C51.12 4.37216 50.7749 4.25568 50.3118 4.25568C49.8317 4.25568 49.4553 4.3608 49.1825 4.57102C48.9098 4.78125 48.718 5.00568 48.6072 5.24432L47.6527 4.90341C47.8232 4.50568 48.0504 4.19602 48.3345 3.97443C48.6214 3.75 48.9339 3.59375 49.272 3.50568C49.6129 3.41477 49.9482 3.36932 50.2777 3.36932C50.4879 3.36932 50.7294 3.39489 51.0021 3.44602C51.2777 3.49432 51.5433 3.59517 51.799 3.74858C52.0575 3.90199 52.272 4.13352 52.4425 4.44318C52.6129 4.75284 52.6982 5.16761 52.6982 5.6875V10H51.6925V9.11364H51.6413C51.5732 9.25568 51.4595 9.40767 51.3004 9.5696C51.1413 9.73153 50.9297 9.86932 50.6655 9.98295C50.4013 10.0966 50.0788 10.1534 49.6982 10.1534ZM49.8516 9.25C50.2493 9.25 50.5845 9.17188 50.8572 9.01562C51.1328 8.85938 51.3402 8.65767 51.4794 8.41051C51.6214 8.16335 51.6925 7.90341 51.6925 7.63068V6.71023C51.6499 6.76136 51.5561 6.80824 51.4112 6.85085C51.2692 6.89062 51.1044 6.92614 50.9169 6.95739C50.7322 6.9858 50.5518 7.01136 50.3757 7.03409C50.2024 7.05398 50.0618 7.07102 49.9538 7.08523C49.6925 7.11932 49.4482 7.17472 49.2209 7.25142C48.9964 7.32528 48.8146 7.4375 48.6754 7.58807C48.5391 7.7358 48.4709 7.9375 48.4709 8.19318C48.4709 8.54261 48.6001 8.80682 48.8587 8.9858C49.12 9.16193 49.451 9.25 49.8516 9.25ZM59.1701 4.92045L58.2667 5.17614C58.2099 5.02557 58.1261 4.87926 58.0153 4.73722C57.9073 4.59233 57.7596 4.47301 57.5721 4.37926C57.3846 4.28551 57.1445 4.23864 56.8519 4.23864C56.4513 4.23864 56.1175 4.33097 55.8505 4.51562C55.5863 4.69744 55.4542 4.92898 55.4542 5.21023C55.4542 5.46023 55.5451 5.65767 55.7269 5.80256C55.9087 5.94744 56.1928 6.06818 56.5792 6.16477L57.5508 6.40341C58.136 6.54545 58.5721 6.76278 58.859 7.0554C59.146 7.34517 59.2894 7.71875 59.2894 8.17614C59.2894 8.55114 59.1815 8.88636 58.9656 9.18182C58.7525 9.47727 58.4542 9.71023 58.0707 9.88068C57.6871 10.0511 57.2411 10.1364 56.7326 10.1364C56.065 10.1364 55.5124 9.99148 55.0749 9.7017C54.6374 9.41193 54.3604 8.98864 54.244 8.43182L55.1985 8.19318C55.2894 8.54545 55.4613 8.80966 55.7141 8.9858C55.9698 9.16193 56.3036 9.25 56.7156 9.25C57.1843 9.25 57.5565 9.15057 57.832 8.9517C58.1104 8.75 58.2496 8.50852 58.2496 8.22727C58.2496 8 58.1701 7.80966 58.011 7.65625C57.8519 7.5 57.6076 7.38352 57.2781 7.30682L56.1871 7.05114C55.5877 6.90909 55.1474 6.68892 54.8661 6.39062C54.5877 6.08949 54.4485 5.71307 54.4485 5.26136C54.4485 4.89205 54.5522 4.56534 54.7596 4.28125C54.9698 3.99716 55.2553 3.77415 55.6161 3.61222C55.9798 3.45028 56.3917 3.36932 56.8519 3.36932C57.4996 3.36932 58.0082 3.51136 58.3775 3.79545C58.7496 4.07955 59.0138 4.45455 59.1701 4.92045ZM64.1783 10V3.45455H65.1499V4.47727H65.2351C65.3714 4.12784 65.5916 3.85653 65.8956 3.66335C66.1996 3.46733 66.5646 3.36932 66.9908 3.36932C67.4226 3.36932 67.782 3.46733 68.0689 3.66335C68.3587 3.85653 68.5845 4.12784 68.7464 4.47727H68.8146C68.9822 4.1392 69.2337 3.87074 69.5689 3.67188C69.9041 3.47017 70.3061 3.36932 70.7749 3.36932C71.3601 3.36932 71.8388 3.55256 72.2109 3.91903C72.5831 4.28267 72.7692 4.84943 72.7692 5.61932V10H71.7635V5.61932C71.7635 5.13636 71.6314 4.79119 71.3672 4.58381C71.103 4.37642 70.7919 4.27273 70.4339 4.27273C69.9737 4.27273 69.6172 4.41193 69.3643 4.69034C69.1115 4.96591 68.9851 5.31534 68.9851 5.73864V10H67.9624V5.51705C67.9624 5.14489 67.8416 4.84517 67.6001 4.6179C67.3587 4.38778 67.0476 4.27273 66.6669 4.27273C66.4055 4.27273 66.1612 4.34233 65.9339 4.48153C65.7095 4.62074 65.5277 4.81392 65.3885 5.06108C65.2521 5.3054 65.1839 5.58807 65.1839 5.90909V10H64.1783ZM74.608 10V3.45455H75.6136V10H74.608ZM75.1193 2.36364C74.9233 2.36364 74.7543 2.29688 74.6122 2.16335C74.473 2.02983 74.4034 1.86932 74.4034 1.68182C74.4034 1.49432 74.473 1.33381 74.6122 1.20028C74.7543 1.06676 74.9233 1 75.1193 1C75.3153 1 75.483 1.06676 75.6222 1.20028C75.7642 1.33381 75.8352 1.49432 75.8352 1.68182C75.8352 1.86932 75.7642 2.02983 75.6222 2.16335C75.483 2.29688 75.3153 2.36364 75.1193 2.36364ZM78.4613 6.0625V10H77.4556V3.45455H78.4272V4.47727H78.5124C78.6658 4.14489 78.8988 3.87784 79.2113 3.67614C79.5238 3.47159 79.9272 3.36932 80.4215 3.36932C80.8647 3.36932 81.2525 3.46023 81.5849 3.64205C81.9173 3.82102 82.1758 4.09375 82.3604 4.46023C82.5451 4.82386 82.6374 5.28409 82.6374 5.84091V10H81.6317V5.90909C81.6317 5.39489 81.4982 4.99432 81.2312 4.70739C80.9641 4.41761 80.5977 4.27273 80.1317 4.27273C79.8107 4.27273 79.5238 4.34233 79.271 4.48153C79.021 4.62074 78.8235 4.82386 78.6786 5.09091C78.5337 5.35795 78.4613 5.68182 78.4613 6.0625ZM88.6001 7.32386V3.45455H89.6058V10H88.6001V8.89205H88.532C88.3786 9.22443 88.1399 9.5071 87.8161 9.74006C87.4922 9.97017 87.0831 10.0852 86.5888 10.0852C86.1797 10.0852 85.8161 9.99574 85.4979 9.81676C85.1797 9.63494 84.9297 9.36222 84.7479 8.99858C84.5661 8.6321 84.4751 8.17045 84.4751 7.61364V3.45455H85.4808V7.54545C85.4808 8.02273 85.6143 8.40341 85.8814 8.6875C86.1513 8.97159 86.495 9.11364 86.9126 9.11364C87.1626 9.11364 87.4169 9.04972 87.6754 8.92188C87.9368 8.79403 88.1555 8.59801 88.3317 8.33381C88.5107 8.0696 88.6001 7.73295 88.6001 7.32386ZM86.5888 2.56818L87.6286 0.590909H88.8047L87.4751 2.56818H86.5888ZM96.0842 4.92045L95.1808 5.17614C95.1239 5.02557 95.0401 4.87926 94.9293 4.73722C94.8214 4.59233 94.6737 4.47301 94.4862 4.37926C94.2987 4.28551 94.0586 4.23864 93.766 4.23864C93.3654 4.23864 93.0316 4.33097 92.7646 4.51562C92.5004 4.69744 92.3683 4.92898 92.3683 5.21023C92.3683 5.46023 92.4592 5.65767 92.641 5.80256C92.8228 5.94744 93.1069 6.06818 93.4933 6.16477L94.4648 6.40341C95.0501 6.54545 95.4862 6.76278 95.7731 7.0554C96.06 7.34517 96.2035 7.71875 96.2035 8.17614C96.2035 8.55114 96.0955 8.88636 95.8796 9.18182C95.6665 9.47727 95.3683 9.71023 94.9847 9.88068C94.6012 10.0511 94.1552 10.1364 93.6467 10.1364C92.979 10.1364 92.4265 9.99148 91.989 9.7017C91.5515 9.41193 91.2745 8.98864 91.158 8.43182L92.1126 8.19318C92.2035 8.54545 92.3754 8.80966 92.6282 8.9858C92.8839 9.16193 93.2177 9.25 93.6296 9.25C94.0984 9.25 94.4705 9.15057 94.7461 8.9517C95.0245 8.75 95.1637 8.50852 95.1637 8.22727C95.1637 8 95.0842 7.80966 94.9251 7.65625C94.766 7.5 94.5217 7.38352 94.1921 7.30682L93.1012 7.05114C92.5018 6.90909 92.0614 6.68892 91.7802 6.39062C91.5018 6.08949 91.3626 5.71307 91.3626 5.26136C91.3626 4.89205 91.4663 4.56534 91.6737 4.28125C91.8839 3.99716 92.1694 3.77415 92.5302 3.61222C92.8938 3.45028 93.3058 3.36932 93.766 3.36932C94.4137 3.36932 94.9222 3.51136 95.2915 3.79545C95.6637 4.07955 95.9279 4.45455 96.0842 4.92045ZM100.376 10.1364C99.7628 10.1364 99.2344 9.99148 98.7912 9.7017C98.348 9.41193 98.0071 9.01278 97.7685 8.50426C97.5298 7.99574 97.4105 7.41477 97.4105 6.76136C97.4105 6.09659 97.5327 5.50994 97.777 5.00142C98.0241 4.49006 98.3679 4.09091 98.8082 3.80398C99.2514 3.5142 99.7685 3.36932 100.359 3.36932C100.82 3.36932 101.234 3.45455 101.604 3.625C101.973 3.79545 102.276 4.03409 102.511 4.34091C102.747 4.64773 102.893 5.00568 102.95 5.41477H101.945C101.868 5.11648 101.697 4.85227 101.433 4.62216C101.172 4.3892 100.82 4.27273 100.376 4.27273C99.9844 4.27273 99.6406 4.375 99.3452 4.57955C99.0526 4.78125 98.8239 5.06676 98.6591 5.43608C98.4972 5.80256 98.4162 6.23295 98.4162 6.72727C98.4162 7.23295 98.4957 7.6733 98.6548 8.0483C98.8168 8.4233 99.044 8.71449 99.3366 8.92188C99.6321 9.12926 99.9787 9.23295 100.376 9.23295C100.638 9.23295 100.875 9.1875 101.088 9.09659C101.301 9.00568 101.482 8.875 101.629 8.70455C101.777 8.53409 101.882 8.32955 101.945 8.09091H102.95C102.893 8.47727 102.753 8.82528 102.528 9.13494C102.307 9.44176 102.013 9.68608 101.646 9.8679C101.283 10.0469 100.859 10.1364 100.376 10.1364ZM108.545 7.32386V3.45455H109.551V10H108.545V8.89205H108.477C108.324 9.22443 108.085 9.5071 107.761 9.74006C107.438 9.97017 107.028 10.0852 106.534 10.0852C106.125 10.0852 105.761 9.99574 105.443 9.81676C105.125 9.63494 104.875 9.36222 104.693 8.99858C104.511 8.6321 104.42 8.17045 104.42 7.61364V3.45455H105.426V7.54545C105.426 8.02273 105.56 8.40341 105.827 8.6875C106.097 8.97159 106.44 9.11364 106.858 9.11364C107.108 9.11364 107.362 9.04972 107.621 8.92188C107.882 8.79403 108.101 8.59801 108.277 8.33381C108.456 8.0696 108.545 7.73295 108.545 7.32386ZM112.399 1.27273V10H111.393V1.27273H112.399ZM116.167 10.1534C115.752 10.1534 115.376 10.0753 115.038 9.91903C114.7 9.75994 114.431 9.53125 114.232 9.23295C114.033 8.93182 113.934 8.56818 113.934 8.14205C113.934 7.76705 114.008 7.46307 114.156 7.23011C114.303 6.99432 114.501 6.80966 114.748 6.67614C114.995 6.54261 115.268 6.44318 115.566 6.37784C115.867 6.30966 116.17 6.25568 116.474 6.21591C116.871 6.16477 117.194 6.12642 117.441 6.10085C117.691 6.07244 117.873 6.02557 117.987 5.96023C118.103 5.89489 118.161 5.78125 118.161 5.61932V5.58523C118.161 5.16477 118.046 4.83807 117.816 4.60511C117.589 4.37216 117.244 4.25568 116.781 4.25568C116.3 4.25568 115.924 4.3608 115.651 4.57102C115.379 4.78125 115.187 5.00568 115.076 5.24432L114.121 4.90341C114.292 4.50568 114.519 4.19602 114.803 3.97443C115.09 3.75 115.403 3.59375 115.741 3.50568C116.082 3.41477 116.417 3.36932 116.746 3.36932C116.957 3.36932 117.198 3.39489 117.471 3.44602C117.746 3.49432 118.012 3.59517 118.268 3.74858C118.526 3.90199 118.741 4.13352 118.911 4.44318C119.082 4.75284 119.167 5.16761 119.167 5.6875V10H118.161V9.11364H118.11C118.042 9.25568 117.928 9.40767 117.769 9.5696C117.61 9.73153 117.398 9.86932 117.134 9.98295C116.87 10.0966 116.548 10.1534 116.167 10.1534ZM116.32 9.25C116.718 9.25 117.053 9.17188 117.326 9.01562C117.602 8.85938 117.809 8.65767 117.948 8.41051C118.09 8.16335 118.161 7.90341 118.161 7.63068V6.71023C118.119 6.76136 118.025 6.80824 117.88 6.85085C117.738 6.89062 117.573 6.92614 117.386 6.95739C117.201 6.9858 117.021 7.01136 116.844 7.03409C116.671 7.05398 116.531 7.07102 116.423 7.08523C116.161 7.11932 115.917 7.17472 115.69 7.25142C115.465 7.32528 115.283 7.4375 115.144 7.58807C115.008 7.7358 114.94 7.9375 114.94 8.19318C114.94 8.54261 115.069 8.80682 115.327 8.9858C115.589 9.16193 115.92 9.25 116.32 9.25ZM125.639 4.92045L124.735 5.17614C124.679 5.02557 124.595 4.87926 124.484 4.73722C124.376 4.59233 124.228 4.47301 124.041 4.37926C123.853 4.28551 123.613 4.23864 123.321 4.23864C122.92 4.23864 122.586 4.33097 122.319 4.51562C122.055 4.69744 121.923 4.92898 121.923 5.21023C121.923 5.46023 122.014 5.65767 122.196 5.80256C122.377 5.94744 122.662 6.06818 123.048 6.16477L124.02 6.40341C124.605 6.54545 125.041 6.76278 125.328 7.0554C125.615 7.34517 125.758 7.71875 125.758 8.17614C125.758 8.55114 125.65 8.88636 125.434 9.18182C125.221 9.47727 124.923 9.71023 124.539 9.88068C124.156 10.0511 123.71 10.1364 123.201 10.1364C122.534 10.1364 121.981 9.99148 121.544 9.7017C121.106 9.41193 120.829 8.98864 120.713 8.43182L121.667 8.19318C121.758 8.54545 121.93 8.80966 122.183 8.9858C122.439 9.16193 122.772 9.25 123.184 9.25C123.653 9.25 124.025 9.15057 124.301 8.9517C124.579 8.75 124.718 8.50852 124.718 8.22727C124.718 8 124.639 7.80966 124.48 7.65625C124.321 7.5 124.076 7.38352 123.747 7.30682L122.656 7.05114C122.056 6.90909 121.616 6.68892 121.335 6.39062C121.056 6.08949 120.917 5.71307 120.917 5.26136C120.917 4.89205 121.021 4.56534 121.228 4.28125C121.439 3.99716 121.724 3.77415 122.085 3.61222C122.449 3.45028 122.86 3.36932 123.321 3.36932C123.968 3.36932 124.477 3.51136 124.846 3.79545C125.218 4.07955 125.483 4.45455 125.639 4.92045ZM131.295 12.4545C131.124 12.4545 130.972 12.4403 130.839 12.4119C130.705 12.3864 130.613 12.3608 130.562 12.3352L130.817 11.4489C131.062 11.5114 131.278 11.5341 131.465 11.517C131.653 11.5 131.819 11.4162 131.964 11.2656C132.112 11.1179 132.246 10.8778 132.369 10.5455L132.556 10.0341L130.136 3.45455H131.227L133.033 8.67045H133.102L134.908 3.45455H135.999L133.221 10.9545C133.096 11.2926 132.941 11.5724 132.756 11.794C132.572 12.0185 132.357 12.1847 132.113 12.2926C131.871 12.4006 131.599 12.4545 131.295 12.4545ZM145.338 4.92045L144.435 5.17614C144.378 5.02557 144.294 4.87926 144.183 4.73722C144.075 4.59233 143.928 4.47301 143.74 4.37926C143.553 4.28551 143.312 4.23864 143.02 4.23864C142.619 4.23864 142.286 4.33097 142.018 4.51562C141.754 4.69744 141.622 4.92898 141.622 5.21023C141.622 5.46023 141.713 5.65767 141.895 5.80256C142.077 5.94744 142.361 6.06818 142.747 6.16477L143.719 6.40341C144.304 6.54545 144.74 6.76278 145.027 7.0554C145.314 7.34517 145.457 7.71875 145.457 8.17614C145.457 8.55114 145.349 8.88636 145.134 9.18182C144.92 9.47727 144.622 9.71023 144.239 9.88068C143.855 10.0511 143.409 10.1364 142.901 10.1364C142.233 10.1364 141.68 9.99148 141.243 9.7017C140.805 9.41193 140.528 8.98864 140.412 8.43182L141.366 8.19318C141.457 8.54545 141.629 8.80966 141.882 8.9858C142.138 9.16193 142.472 9.25 142.884 9.25C143.352 9.25 143.724 9.15057 144 8.9517C144.278 8.75 144.418 8.50852 144.418 8.22727C144.418 8 144.338 7.80966 144.179 7.65625C144.02 7.5 143.776 7.38352 143.446 7.30682L142.355 7.05114C141.756 6.90909 141.315 6.68892 141.034 6.39062C140.756 6.08949 140.616 5.71307 140.616 5.26136C140.616 4.89205 140.72 4.56534 140.928 4.28125C141.138 3.99716 141.423 3.77415 141.784 3.61222C142.148 3.45028 142.56 3.36932 143.02 3.36932C143.668 3.36932 144.176 3.51136 144.545 3.79545C144.918 4.07955 145.182 4.45455 145.338 4.92045ZM146.971 10V3.45455H147.977V10H146.971ZM147.483 2.36364C147.287 2.36364 147.118 2.29688 146.975 2.16335C146.836 2.02983 146.767 1.86932 146.767 1.68182C146.767 1.49432 146.836 1.33381 146.975 1.20028C147.118 1.06676 147.287 1 147.483 1C147.679 1 147.846 1.06676 147.985 1.20028C148.127 1.33381 148.199 1.49432 148.199 1.68182C148.199 1.86932 148.127 2.02983 147.985 2.16335C147.846 2.29688 147.679 2.36364 147.483 2.36364ZM150.825 6.0625V10H149.819V3.45455H150.79V4.47727H150.876C151.029 4.14489 151.262 3.87784 151.575 3.67614C151.887 3.47159 152.29 3.36932 152.785 3.36932C153.228 3.36932 153.616 3.46023 153.948 3.64205C154.281 3.82102 154.539 4.09375 154.724 4.46023C154.908 4.82386 155.001 5.28409 155.001 5.84091V10H153.995V5.90909C153.995 5.39489 153.862 4.99432 153.594 4.70739C153.327 4.41761 152.961 4.27273 152.495 4.27273C152.174 4.27273 151.887 4.34233 151.634 4.48153C151.384 4.62074 151.187 4.82386 151.042 5.09091C150.897 5.35795 150.825 5.68182 150.825 6.0625ZM162.14 10.1534C161.725 10.1534 161.348 10.0753 161.01 9.91903C160.672 9.75994 160.404 9.53125 160.205 9.23295C160.006 8.93182 159.907 8.56818 159.907 8.14205C159.907 7.76705 159.98 7.46307 160.128 7.23011C160.276 6.99432 160.473 6.80966 160.721 6.67614C160.968 6.54261 161.24 6.44318 161.539 6.37784C161.84 6.30966 162.142 6.25568 162.446 6.21591C162.844 6.16477 163.167 6.12642 163.414 6.10085C163.664 6.07244 163.846 6.02557 163.959 5.96023C164.076 5.89489 164.134 5.78125 164.134 5.61932V5.58523C164.134 5.16477 164.019 4.83807 163.789 4.60511C163.561 4.37216 163.216 4.25568 162.753 4.25568C162.273 4.25568 161.897 4.3608 161.624 4.57102C161.351 4.78125 161.159 5.00568 161.049 5.24432L160.094 4.90341C160.265 4.50568 160.492 4.19602 160.776 3.97443C161.063 3.75 161.375 3.59375 161.713 3.50568C162.054 3.41477 162.39 3.36932 162.719 3.36932C162.929 3.36932 163.171 3.39489 163.444 3.44602C163.719 3.49432 163.985 3.59517 164.24 3.74858C164.499 3.90199 164.713 4.13352 164.884 4.44318C165.054 4.75284 165.14 5.16761 165.14 5.6875V10H164.134V9.11364H164.083C164.015 9.25568 163.901 9.40767 163.742 9.5696C163.583 9.73153 163.371 9.86932 163.107 9.98295C162.843 10.0966 162.52 10.1534 162.14 10.1534ZM162.293 9.25C162.691 9.25 163.026 9.17188 163.299 9.01562C163.574 8.85938 163.782 8.65767 163.921 8.41051C164.063 8.16335 164.134 7.90341 164.134 7.63068V6.71023C164.091 6.76136 163.998 6.80824 163.853 6.85085C163.711 6.89062 163.546 6.92614 163.358 6.95739C163.174 6.9858 162.993 7.01136 162.817 7.03409C162.644 7.05398 162.503 7.07102 162.395 7.08523C162.134 7.11932 161.89 7.17472 161.662 7.25142C161.438 7.32528 161.256 7.4375 161.117 7.58807C160.98 7.7358 160.912 7.9375 160.912 8.19318C160.912 8.54261 161.042 8.80682 161.3 8.9858C161.561 9.16193 161.892 9.25 162.293 9.25ZM169.634 10.1364C169.021 10.1364 168.492 9.99148 168.049 9.7017C167.606 9.41193 167.265 9.01278 167.026 8.50426C166.788 7.99574 166.668 7.41477 166.668 6.76136C166.668 6.09659 166.79 5.50994 167.035 5.00142C167.282 4.49006 167.626 4.09091 168.066 3.80398C168.509 3.5142 169.026 3.36932 169.617 3.36932C170.077 3.36932 170.492 3.45455 170.862 3.625C171.231 3.79545 171.533 4.03409 171.769 4.34091C172.005 4.64773 172.151 5.00568 172.208 5.41477H171.202C171.126 5.11648 170.955 4.85227 170.691 4.62216C170.43 4.3892 170.077 4.27273 169.634 4.27273C169.242 4.27273 168.898 4.375 168.603 4.57955C168.31 4.78125 168.082 5.06676 167.917 5.43608C167.755 5.80256 167.674 6.23295 167.674 6.72727C167.674 7.23295 167.754 7.6733 167.913 8.0483C168.075 8.4233 168.302 8.71449 168.594 8.92188C168.89 9.12926 169.237 9.23295 169.634 9.23295C169.896 9.23295 170.133 9.1875 170.346 9.09659C170.559 9.00568 170.739 8.875 170.887 8.70455C171.035 8.53409 171.14 8.32955 171.202 8.09091H172.208C172.151 8.47727 172.011 8.82528 171.786 9.13494C171.565 9.44176 171.271 9.68608 170.904 9.8679C170.54 10.0469 170.117 10.1364 169.634 10.1364ZM176.423 10.1364C175.792 10.1364 175.248 9.99716 174.79 9.71875C174.336 9.4375 173.985 9.04545 173.738 8.54261C173.494 8.03693 173.371 7.44886 173.371 6.77841C173.371 6.10795 173.494 5.51705 173.738 5.00568C173.985 4.49148 174.329 4.09091 174.769 3.80398C175.212 3.5142 175.729 3.36932 176.32 3.36932C176.661 3.36932 176.998 3.42614 177.33 3.53977C177.663 3.65341 177.965 3.83807 178.238 4.09375C178.511 4.34659 178.728 4.68182 178.89 5.09943C179.052 5.51705 179.133 6.03125 179.133 6.64205V7.06818H174.087V6.19886H178.11C178.11 5.82955 178.036 5.5 177.888 5.21023C177.744 4.92045 177.536 4.69176 177.266 4.52415C176.999 4.35653 176.684 4.27273 176.32 4.27273C175.92 4.27273 175.573 4.37216 175.281 4.57102C174.991 4.76705 174.768 5.02273 174.612 5.33807C174.455 5.65341 174.377 5.99148 174.377 6.35227V6.93182C174.377 7.42614 174.462 7.84517 174.633 8.18892C174.806 8.52983 175.046 8.78977 175.353 8.96875C175.66 9.14489 176.016 9.23295 176.423 9.23295C176.687 9.23295 176.925 9.19602 177.138 9.12216C177.354 9.04545 177.54 8.93182 177.697 8.78125C177.853 8.62784 177.974 8.4375 178.059 8.21023L179.031 8.48295C178.928 8.8125 178.756 9.10227 178.515 9.35227C178.273 9.59943 177.975 9.79261 177.62 9.93182C177.265 10.0682 176.866 10.1364 176.423 10.1364ZM181.668 6.0625V10H180.663V3.45455H181.634V4.47727H181.719C181.873 4.14489 182.106 3.87784 182.418 3.67614C182.731 3.47159 183.134 3.36932 183.629 3.36932C184.072 3.36932 184.46 3.46023 184.792 3.64205C185.124 3.82102 185.383 4.09375 185.567 4.46023C185.752 4.82386 185.844 5.28409 185.844 5.84091V10H184.839V5.90909C184.839 5.39489 184.705 4.99432 184.438 4.70739C184.171 4.41761 183.805 4.27273 183.339 4.27273C183.018 4.27273 182.731 4.34233 182.478 4.48153C182.228 4.62074 182.031 4.82386 181.886 5.09091C181.741 5.35795 181.668 5.68182 181.668 6.0625ZM190.529 3.45455V4.30682H187.137V3.45455H190.529ZM188.125 1.88636H189.131V8.125C189.131 8.40909 189.172 8.62216 189.255 8.7642C189.34 8.90341 189.448 8.99716 189.578 9.04545C189.712 9.09091 189.853 9.11364 190 9.11364C190.111 9.11364 190.202 9.10795 190.273 9.09659C190.344 9.08239 190.401 9.07102 190.444 9.0625L190.648 9.96591C190.58 9.99148 190.485 10.017 190.363 10.0426C190.24 10.071 190.086 10.0852 189.898 10.0852C189.614 10.0852 189.336 10.0241 189.063 9.90199C188.793 9.77983 188.569 9.59375 188.39 9.34375C188.213 9.09375 188.125 8.77841 188.125 8.39773V1.88636ZM194.63 10.1364C194.039 10.1364 193.521 9.99574 193.075 9.71449C192.632 9.43324 192.285 9.03977 192.035 8.53409C191.788 8.02841 191.664 7.4375 191.664 6.76136C191.664 6.07955 191.788 5.48437 192.035 4.97585C192.285 4.46733 192.632 4.07244 193.075 3.79119C193.521 3.50994 194.039 3.36932 194.63 3.36932C195.221 3.36932 195.738 3.50994 196.181 3.79119C196.627 4.07244 196.974 4.46733 197.221 4.97585C197.471 5.48437 197.596 6.07955 197.596 6.76136C197.596 7.4375 197.471 8.02841 197.221 8.53409C196.974 9.03977 196.627 9.43324 196.181 9.71449C195.738 9.99574 195.221 10.1364 194.63 10.1364ZM194.63 9.23295C195.079 9.23295 195.449 9.1179 195.738 8.88778C196.028 8.65767 196.243 8.35511 196.382 7.98011C196.521 7.60511 196.591 7.19886 196.591 6.76136C196.591 6.32386 196.521 5.91619 196.382 5.53835C196.243 5.16051 196.028 4.85511 195.738 4.62216C195.449 4.3892 195.079 4.27273 194.63 4.27273C194.181 4.27273 193.812 4.3892 193.522 4.62216C193.233 4.85511 193.018 5.16051 192.879 5.53835C192.74 5.91619 192.67 6.32386 192.67 6.76136C192.67 7.19886 192.74 7.60511 192.879 7.98011C193.018 8.35511 193.233 8.65767 193.522 8.88778C193.812 9.1179 194.181 9.23295 194.63 9.23295ZM203.768 4.92045L202.864 5.17614C202.808 5.02557 202.724 4.87926 202.613 4.73722C202.505 4.59233 202.357 4.47301 202.17 4.37926C201.982 4.28551 201.742 4.23864 201.45 4.23864C201.049 4.23864 200.715 4.33097 200.448 4.51562C200.184 4.69744 200.052 4.92898 200.052 5.21023C200.052 5.46023 200.143 5.65767 200.325 5.80256C200.506 5.94744 200.79 6.06818 201.177 6.16477L202.148 6.40341C202.734 6.54545 203.17 6.76278 203.457 7.0554C203.744 7.34517 203.887 7.71875 203.887 8.17614C203.887 8.55114 203.779 8.88636 203.563 9.18182C203.35 9.47727 203.052 9.71023 202.668 9.88068C202.285 10.0511 201.839 10.1364 201.33 10.1364C200.663 10.1364 200.11 9.99148 199.673 9.7017C199.235 9.41193 198.958 8.98864 198.842 8.43182L199.796 8.19318C199.887 8.54545 200.059 8.80966 200.312 8.9858C200.567 9.16193 200.901 9.25 201.313 9.25C201.782 9.25 202.154 9.15057 202.43 8.9517C202.708 8.75 202.847 8.50852 202.847 8.22727C202.847 8 202.768 7.80966 202.609 7.65625C202.45 7.5 202.205 7.38352 201.876 7.30682L200.785 7.05114C200.185 6.90909 199.745 6.68892 199.464 6.39062C199.185 6.08949 199.046 5.71307 199.046 5.26136C199.046 4.89205 199.15 4.56534 199.357 4.28125C199.567 3.99716 199.853 3.77415 200.214 3.61222C200.577 3.45028 200.989 3.36932 201.45 3.36932C202.097 3.36932 202.606 3.51136 202.975 3.79545C203.347 4.07955 203.612 4.45455 203.768 4.92045Z" fill="#495057"/>
</svg>
